ISO-10303-21;
HEADER;
FILE_DESCRIPTION(('Open CASCADE Model'),'2;1');
FILE_NAME('Open CASCADE Shape Model','2026-09-14T07:57:26',('Author'),(
    'Open CASCADE'),'Open CASCADE STEP processor 7.8','Open CASCADE 7.8'
  ,'Unknown');
FILE_SCHEMA(('AUTOMOTIVE_DESIGN { 1 0 10303 214 1 1 1 1 }'));
ENDSEC;
DATA;
#1 = APPLICATION_PROTOCOL_DEFINITION('international standard',
  'automotive_design',2000,#2);
#2 = APPLICATION_CONTEXT(
  'core data for automotive mechanical design processes');
#3 = SHAPE_DEFINITION_REPRESENTATION(#4,#10);
#4 = PRODUCT_DEFINITION_SHAPE('','',#5);
#5 = PRODUCT_DEFINITION('design','',#6,#9);
#6 = PRODUCT_DEFINITION_FORMATION('','',#7);
#7 = PRODUCT('Open CASCADE STEP translator 7.8 1',
  'Open CASCADE STEP translator 7.8 1','',(#8));
#8 = PRODUCT_CONTEXT('',#2,'mechanical');
#9 = PRODUCT_DEFINITION_CONTEXT('part definition',#2,'design');
#10 = ADVANCED_BREP_SHAPE_REPRESENTATION('',(#11,#15),#1029);
#11 = AXIS2_PLACEMENT_3D('',#12,#13,#14);
#12 = CARTESIAN_POINT('',(0.,0.,0.));
#13 = DIRECTION('',(0.,0.,1.));
#14 = DIRECTION('',(1.,0.,-0.));
#15 = MANIFOLD_SOLID_BREP('',#16);
#16 = CLOSED_SHELL('',(#17,#216,#332,#422,#486,#583,#719,#824,#903,#956,
    #982,#1008,#1015,#1022));
#17 = ADVANCED_FACE('',(#18),#34,.F.);
#18 = FACE_BOUND('',#19,.F.);
#19 = EDGE_LOOP('',(#20,#99,#131,#182));
#20 = ORIENTED_EDGE('',*,*,#21,.F.);
#21 = EDGE_CURVE('',#22,#24,#26,.T.);
#22 = VERTEX_POINT('',#23);
#23 = CARTESIAN_POINT('',(10.,0.,0.));
#24 = VERTEX_POINT('',#25);
#25 = CARTESIAN_POINT('',(30.,0.,60.));
#26 = SURFACE_CURVE('',#27,(#33,#66),.PCURVE_S1.);
#27 = B_SPLINE_CURVE_WITH_KNOTS('',3,(#28,#29,#30,#31,#32),
  .UNSPECIFIED.,.F.,.F.,(4,1,4),(0.,0.5,1.),.QUASI_UNIFORM_KNOTS.);
#28 = CARTESIAN_POINT('',(10.,0.,0.));
#29 = CARTESIAN_POINT('',(13.333333333333,0.,10.));
#30 = CARTESIAN_POINT('',(20.,0.,30.));
#31 = CARTESIAN_POINT('',(26.666666666667,0.,50.));
#32 = CARTESIAN_POINT('',(30.,0.,60.));
#33 = PCURVE('',#34,#60);
#34 = B_SPLINE_SURFACE_WITH_KNOTS('',3,3,(
    (#35,#36,#37,#38,#39)
    ,(#40,#41,#42,#43,#44)
    ,(#45,#46,#47,#48,#49)
    ,(#50,#51,#52,#53,#54)
    ,(#55,#56,#57,#58,#59
    )),.UNSPECIFIED.,.F.,.F.,.F.,(4,1,4),(4,1,4),(0.,0.5,1.),(0.,0.5,1.)
  ,.QUASI_UNIFORM_KNOTS.);
#35 = CARTESIAN_POINT('',(10.,0.,0.));
#36 = CARTESIAN_POINT('',(13.333333333333,0.,10.));
#37 = CARTESIAN_POINT('',(20.,0.,30.));
#38 = CARTESIAN_POINT('',(26.666666666667,0.,50.));
#39 = CARTESIAN_POINT('',(30.,0.,60.));
#40 = CARTESIAN_POINT('',(10.025603339386,2.626561559009,0.));
#41 = CARTESIAN_POINT('',(13.367471119182,3.502082078679,10.));
#42 = CARTESIAN_POINT('',(20.051206678772,5.253123118019,30.));
#43 = CARTESIAN_POINT('',(26.734942238363,7.004164157358,50.));
#44 = CARTESIAN_POINT('',(30.076810018158,7.879684677028,60.));
#45 = CARTESIAN_POINT('',(7.816053174533,7.816053174533,0.));
#46 = CARTESIAN_POINT('',(10.421404232711,10.421404232711,10.));
#47 = CARTESIAN_POINT('',(15.632106349066,15.632106349066,30.));
#48 = CARTESIAN_POINT('',(20.842808465422,20.842808465422,50.));
#49 = CARTESIAN_POINT('',(23.4481595236,23.4481595236,60.));
#50 = CARTESIAN_POINT('',(2.626561559009,10.025603339386,0.));
#51 = CARTESIAN_POINT('',(3.502082078679,13.367471119182,10.));
#52 = CARTESIAN_POINT('',(5.253123118019,20.051206678772,30.));
#53 = CARTESIAN_POINT('',(7.004164157358,26.734942238363,50.));
#54 = CARTESIAN_POINT('',(7.879684677028,30.076810018158,60.));
#55 = CARTESIAN_POINT('',(6.123233995737E-16,10.,0.));
#56 = CARTESIAN_POINT('',(8.164311994316E-16,13.333333333333,10.));
#57 = CARTESIAN_POINT('',(1.224646799147E-15,20.,30.));
#58 = CARTESIAN_POINT('',(1.632862398863E-15,26.666666666667,50.));
#59 = CARTESIAN_POINT('',(1.836970198721E-15,30.,60.));
#60 = DEFINITIONAL_REPRESENTATION('',(#61),#65);
#61 = LINE('',#62,#63);
#62 = CARTESIAN_POINT('',(0.,0.));
#63 = VECTOR('',#64,1.);
#64 = DIRECTION('',(0.,1.));
#65 = ( GEOMETRIC_REPRESENTATION_CONTEXT(2) 
PARAMETRIC_REPRESENTATION_CONTEXT() REPRESENTATION_CONTEXT('2D SPACE',''
  ) );
#66 = PCURVE('',#67,#93);
#67 = B_SPLINE_SURFACE_WITH_KNOTS('',3,3,(
    (#68,#69,#70,#71,#72)
    ,(#73,#74,#75,#76,#77)
    ,(#78,#79,#80,#81,#82)
    ,(#83,#84,#85,#86,#87)
    ,(#88,#89,#90,#91,#92
    )),.UNSPECIFIED.,.F.,.F.,.F.,(4,1,4),(4,1,4),(0.,0.5,1.),(0.,0.5,1.)
  ,.QUASI_UNIFORM_KNOTS.);
#68 = CARTESIAN_POINT('',(-1.836970198721E-15,-10.,0.));
#69 = CARTESIAN_POINT('',(-2.449293598295E-15,-13.33333333333,10.));
#70 = CARTESIAN_POINT('',(-3.673940397442E-15,-20.,30.));
#71 = CARTESIAN_POINT('',(-4.898587196589E-15,-26.66666666666,50.));
#72 = CARTESIAN_POINT('',(-5.510910596163E-15,-30.,60.));
#73 = CARTESIAN_POINT('',(2.626561559009,-10.02560333938,0.));
#74 = CARTESIAN_POINT('',(3.502082078679,-13.36747111918,10.));
#75 = CARTESIAN_POINT('',(5.253123118019,-20.05120667877,30.));
#76 = CARTESIAN_POINT('',(7.004164157358,-26.73494223836,50.));
#77 = CARTESIAN_POINT('',(7.879684677028,-30.07681001815,60.));
#78 = CARTESIAN_POINT('',(7.816053174533,-7.816053174533,0.));
#79 = CARTESIAN_POINT('',(10.421404232711,-10.42140423271,10.));
#80 = CARTESIAN_POINT('',(15.632106349066,-15.63210634906,30.));
#81 = CARTESIAN_POINT('',(20.842808465422,-20.84280846542,50.));
#82 = CARTESIAN_POINT('',(23.4481595236,-23.4481595236,60.));
#83 = CARTESIAN_POINT('',(10.025603339386,-2.626561559009,0.));
#84 = CARTESIAN_POINT('',(13.367471119182,-3.502082078679,10.));
#85 = CARTESIAN_POINT('',(20.051206678772,-5.253123118019,30.));
#86 = CARTESIAN_POINT('',(26.734942238363,-7.004164157358,50.));
#87 = CARTESIAN_POINT('',(30.076810018158,-7.879684677028,60.));
#88 = CARTESIAN_POINT('',(10.,0.,0.));
#89 = CARTESIAN_POINT('',(13.333333333333,0.,10.));
#90 = CARTESIAN_POINT('',(20.,0.,30.));
#91 = CARTESIAN_POINT('',(26.666666666667,0.,50.));
#92 = CARTESIAN_POINT('',(30.,0.,60.));
#93 = DEFINITIONAL_REPRESENTATION('',(#94),#98);
#94 = LINE('',#95,#96);
#95 = CARTESIAN_POINT('',(1.,0.));
#96 = VECTOR('',#97,1.);
#97 = DIRECTION('',(0.,1.));
#98 = ( GEOMETRIC_REPRESENTATION_CONTEXT(2) 
PARAMETRIC_REPRESENTATION_CONTEXT() REPRESENTATION_CONTEXT('2D SPACE',''
  ) );
#99 = ORIENTED_EDGE('',*,*,#100,.T.);
#100 = EDGE_CURVE('',#22,#101,#103,.T.);
#101 = VERTEX_POINT('',#102);
#102 = CARTESIAN_POINT('',(6.123233995737E-16,10.,0.));
#103 = SURFACE_CURVE('',#104,(#110,#117),.PCURVE_S1.);
#104 = B_SPLINE_CURVE_WITH_KNOTS('',3,(#105,#106,#107,#108,#109),
  .UNSPECIFIED.,.F.,.F.,(4,1,4),(0.,0.5,1.),.QUASI_UNIFORM_KNOTS.);
#105 = CARTESIAN_POINT('',(10.,0.,0.));
#106 = CARTESIAN_POINT('',(10.025603339386,2.626561559009,0.));
#107 = CARTESIAN_POINT('',(7.816053174533,7.816053174533,0.));
#108 = CARTESIAN_POINT('',(2.626561559009,10.025603339386,0.));
#109 = CARTESIAN_POINT('',(6.123233995737E-16,10.,0.));
#110 = PCURVE('',#34,#111);
#111 = DEFINITIONAL_REPRESENTATION('',(#112),#116);
#112 = LINE('',#113,#114);
#113 = CARTESIAN_POINT('',(0.,0.));
#114 = VECTOR('',#115,1.);
#115 = DIRECTION('',(1.,0.));
#116 = ( GEOMETRIC_REPRESENTATION_CONTEXT(2) 
PARAMETRIC_REPRESENTATION_CONTEXT() REPRESENTATION_CONTEXT('2D SPACE',''
  ) );
#117 = PCURVE('',#118,#123);
#118 = PLANE('',#119);
#119 = AXIS2_PLACEMENT_3D('',#120,#121,#122);
#120 = CARTESIAN_POINT('',(-3.118563817427E-16,4.819598626933E-16,0.));
#121 = DIRECTION('',(0.,0.,1.));
#122 = DIRECTION('',(1.,0.,-0.));
#123 = DEFINITIONAL_REPRESENTATION('',(#124),#130);
#124 = B_SPLINE_CURVE_WITH_KNOTS('',3,(#125,#126,#127,#128,#129),
  .UNSPECIFIED.,.F.,.F.,(4,1,4),(0.,0.5,1.),.QUASI_UNIFORM_KNOTS.);
#125 = CARTESIAN_POINT('',(10.,-4.819598626933E-16));
#126 = CARTESIAN_POINT('',(10.025603339386,2.626561559009));
#127 = CARTESIAN_POINT('',(7.816053174533,7.816053174533));
#128 = CARTESIAN_POINT('',(2.626561559009,10.025603339386));
#129 = CARTESIAN_POINT('',(9.241797813164E-16,10.));
#130 = ( GEOMETRIC_REPRESENTATION_CONTEXT(2) 
PARAMETRIC_REPRESENTATION_CONTEXT() REPRESENTATION_CONTEXT('2D SPACE',''
  ) );
#131 = ORIENTED_EDGE('',*,*,#132,.T.);
#132 = EDGE_CURVE('',#101,#133,#135,.T.);
#133 = VERTEX_POINT('',#134);
#134 = CARTESIAN_POINT('',(1.836970198721E-15,30.,60.));
#135 = SURFACE_CURVE('',#136,(#142,#149),.PCURVE_S1.);
#136 = B_SPLINE_CURVE_WITH_KNOTS('',3,(#137,#138,#139,#140,#141),
  .UNSPECIFIED.,.F.,.F.,(4,1,4),(0.,0.5,1.),.QUASI_UNIFORM_KNOTS.);
#137 = CARTESIAN_POINT('',(6.123233995737E-16,10.,0.));
#138 = CARTESIAN_POINT('',(8.164311994316E-16,13.333333333333,10.));
#139 = CARTESIAN_POINT('',(1.224646799147E-15,20.,30.));
#140 = CARTESIAN_POINT('',(1.632862398863E-15,26.666666666667,50.));
#141 = CARTESIAN_POINT('',(1.836970198721E-15,30.,60.));
#142 = PCURVE('',#34,#143);
#143 = DEFINITIONAL_REPRESENTATION('',(#144),#148);
#144 = LINE('',#145,#146);
#145 = CARTESIAN_POINT('',(1.,0.));
#146 = VECTOR('',#147,1.);
#147 = DIRECTION('',(0.,1.));
#148 = ( GEOMETRIC_REPRESENTATION_CONTEXT(2) 
PARAMETRIC_REPRESENTATION_CONTEXT() REPRESENTATION_CONTEXT('2D SPACE',''
  ) );
#149 = PCURVE('',#150,#176);
#150 = B_SPLINE_SURFACE_WITH_KNOTS('',3,3,(
    (#151,#152,#153,#154,#155)
    ,(#156,#157,#158,#159,#160)
    ,(#161,#162,#163,#164,#165)
    ,(#166,#167,#168,#169,#170)
    ,(#171,#172,#173,#174,#175
    )),.UNSPECIFIED.,.F.,.F.,.F.,(4,1,4),(4,1,4),(0.,0.5,1.),(0.,0.5,1.)
  ,.QUASI_UNIFORM_KNOTS.);
#151 = CARTESIAN_POINT('',(6.123233995737E-16,10.,0.));
#152 = CARTESIAN_POINT('',(8.164311994316E-16,13.333333333333,10.));
#153 = CARTESIAN_POINT('',(1.224646799147E-15,20.,30.));
#154 = CARTESIAN_POINT('',(1.632862398863E-15,26.666666666667,50.));
#155 = CARTESIAN_POINT('',(1.836970198721E-15,30.,60.));
#156 = CARTESIAN_POINT('',(-2.626561559009,10.025603339386,0.));
#157 = CARTESIAN_POINT('',(-3.502082078679,13.367471119182,10.));
#158 = CARTESIAN_POINT('',(-5.253123118019,20.051206678772,30.));
#159 = CARTESIAN_POINT('',(-7.004164157358,26.734942238363,50.));
#160 = CARTESIAN_POINT('',(-7.879684677028,30.076810018158,60.));
#161 = CARTESIAN_POINT('',(-7.816053174533,7.816053174533,0.));
#162 = CARTESIAN_POINT('',(-10.42140423271,10.421404232711,10.));
#163 = CARTESIAN_POINT('',(-15.63210634906,15.632106349066,30.));
#164 = CARTESIAN_POINT('',(-20.84280846542,20.842808465422,50.));
#165 = CARTESIAN_POINT('',(-23.4481595236,23.4481595236,60.));
#166 = CARTESIAN_POINT('',(-10.02560333938,2.626561559009,0.));
#167 = CARTESIAN_POINT('',(-13.36747111918,3.502082078679,10.));
#168 = CARTESIAN_POINT('',(-20.05120667877,5.253123118019,30.));
#169 = CARTESIAN_POINT('',(-26.73494223836,7.004164157358,50.));
#170 = CARTESIAN_POINT('',(-30.07681001815,7.879684677028,60.));
#171 = CARTESIAN_POINT('',(-10.,1.224646799147E-15,0.));
#172 = CARTESIAN_POINT('',(-13.33333333333,1.632862398863E-15,10.));
#173 = CARTESIAN_POINT('',(-20.,2.449293598295E-15,30.));
#174 = CARTESIAN_POINT('',(-26.66666666666,3.265724797726E-15,50.));
#175 = CARTESIAN_POINT('',(-30.,3.673940397442E-15,60.));
#176 = DEFINITIONAL_REPRESENTATION('',(#177),#181);
#177 = LINE('',#178,#179);
#178 = CARTESIAN_POINT('',(0.,0.));
#179 = VECTOR('',#180,1.);
#180 = DIRECTION('',(0.,1.));
#181 = ( GEOMETRIC_REPRESENTATION_CONTEXT(2) 
PARAMETRIC_REPRESENTATION_CONTEXT() REPRESENTATION_CONTEXT('2D SPACE',''
  ) );
#182 = ORIENTED_EDGE('',*,*,#183,.F.);
#183 = EDGE_CURVE('',#24,#133,#184,.T.);
#184 = SURFACE_CURVE('',#185,(#191,#198),.PCURVE_S1.);
#185 = B_SPLINE_CURVE_WITH_KNOTS('',3,(#186,#187,#188,#189,#190),
  .UNSPECIFIED.,.F.,.F.,(4,1,4),(0.,0.5,1.),.QUASI_UNIFORM_KNOTS.);
#186 = CARTESIAN_POINT('',(30.,0.,60.));
#187 = CARTESIAN_POINT('',(30.076810018158,7.879684677028,60.));
#188 = CARTESIAN_POINT('',(23.4481595236,23.4481595236,60.));
#189 = CARTESIAN_POINT('',(7.879684677028,30.076810018158,60.));
#190 = CARTESIAN_POINT('',(1.836970198721E-15,30.,60.));
#191 = PCURVE('',#34,#192);
#192 = DEFINITIONAL_REPRESENTATION('',(#193),#197);
#193 = LINE('',#194,#195);
#194 = CARTESIAN_POINT('',(0.,1.));
#195 = VECTOR('',#196,1.);
#196 = DIRECTION('',(1.,0.));
#197 = ( GEOMETRIC_REPRESENTATION_CONTEXT(2) 
PARAMETRIC_REPRESENTATION_CONTEXT() REPRESENTATION_CONTEXT('2D SPACE',''
  ) );
#198 = PCURVE('',#199,#210);
#199 = B_SPLINE_SURFACE_WITH_KNOTS('',3,1,(
    (#200,#201)
    ,(#202,#203)
    ,(#204,#205)
    ,(#206,#207)
    ,(#208,#209
    )),.UNSPECIFIED.,.F.,.F.,.F.,(4,1,4),(2,2),(0.,0.5,1.),(0.,1.),
  .UNSPECIFIED.);
#200 = CARTESIAN_POINT('',(1.836970198721E-15,30.,60.));
#201 = CARTESIAN_POINT('',(1.775737858764E-15,29.,45.));
#202 = CARTESIAN_POINT('',(7.879684677028,30.076810018158,60.));
#203 = CARTESIAN_POINT('',(7.617028521127,29.07424968422,45.));
#204 = CARTESIAN_POINT('',(23.4481595236,23.4481595236,60.));
#205 = CARTESIAN_POINT('',(22.666554206146,22.666554206146,45.));
#206 = CARTESIAN_POINT('',(30.076810018158,7.879684677028,60.));
#207 = CARTESIAN_POINT('',(29.07424968422,7.617028521127,45.));
#208 = CARTESIAN_POINT('',(30.,0.,60.));
#209 = CARTESIAN_POINT('',(29.,0.,45.));
#210 = DEFINITIONAL_REPRESENTATION('',(#211),#215);
#211 = LINE('',#212,#213);
#212 = CARTESIAN_POINT('',(1.,0.));
#213 = VECTOR('',#214,1.);
#214 = DIRECTION('',(-1.,0.));
#215 = ( GEOMETRIC_REPRESENTATION_CONTEXT(2) 
PARAMETRIC_REPRESENTATION_CONTEXT() REPRESENTATION_CONTEXT('2D SPACE',''
  ) );
#216 = ADVANCED_FACE('',(#217),#150,.F.);
#217 = FACE_BOUND('',#218,.F.);
#218 = EDGE_LOOP('',(#219,#220,#247,#298));
#219 = ORIENTED_EDGE('',*,*,#132,.F.);
#220 = ORIENTED_EDGE('',*,*,#221,.T.);
#221 = EDGE_CURVE('',#101,#222,#224,.T.);
#222 = VERTEX_POINT('',#223);
#223 = CARTESIAN_POINT('',(-10.,1.224646799147E-15,0.));
#224 = SURFACE_CURVE('',#225,(#231,#238),.PCURVE_S1.);
#225 = B_SPLINE_CURVE_WITH_KNOTS('',3,(#226,#227,#228,#229,#230),
  .UNSPECIFIED.,.F.,.F.,(4,1,4),(0.,0.5,1.),.QUASI_UNIFORM_KNOTS.);
#226 = CARTESIAN_POINT('',(6.123233995737E-16,10.,0.));
#227 = CARTESIAN_POINT('',(-2.626561559009,10.025603339386,0.));
#228 = CARTESIAN_POINT('',(-7.816053174533,7.816053174533,0.));
#229 = CARTESIAN_POINT('',(-10.02560333938,2.626561559009,0.));
#230 = CARTESIAN_POINT('',(-10.,1.224646799147E-15,0.));
#231 = PCURVE('',#150,#232);
#232 = DEFINITIONAL_REPRESENTATION('',(#233),#237);
#233 = LINE('',#234,#235);
#234 = CARTESIAN_POINT('',(0.,0.));
#235 = VECTOR('',#236,1.);
#236 = DIRECTION('',(1.,0.));
#237 = ( GEOMETRIC_REPRESENTATION_CONTEXT(2) 
PARAMETRIC_REPRESENTATION_CONTEXT() REPRESENTATION_CONTEXT('2D SPACE',''
  ) );
#238 = PCURVE('',#118,#239);
#239 = DEFINITIONAL_REPRESENTATION('',(#240),#246);
#240 = B_SPLINE_CURVE_WITH_KNOTS('',3,(#241,#242,#243,#244,#245),
  .UNSPECIFIED.,.F.,.F.,(4,1,4),(0.,0.5,1.),.QUASI_UNIFORM_KNOTS.);
#241 = CARTESIAN_POINT('',(9.241797813164E-16,10.));
#242 = CARTESIAN_POINT('',(-2.626561559009,10.025603339386));
#243 = CARTESIAN_POINT('',(-7.816053174533,7.816053174533));
#244 = CARTESIAN_POINT('',(-10.02560333938,2.626561559009));
#245 = CARTESIAN_POINT('',(-10.,7.426869364541E-16));
#246 = ( GEOMETRIC_REPRESENTATION_CONTEXT(2) 
PARAMETRIC_REPRESENTATION_CONTEXT() REPRESENTATION_CONTEXT('2D SPACE',''
  ) );
#247 = ORIENTED_EDGE('',*,*,#248,.T.);
#248 = EDGE_CURVE('',#222,#249,#251,.T.);
#249 = VERTEX_POINT('',#250);
#250 = CARTESIAN_POINT('',(-30.,3.673940397442E-15,60.));
#251 = SURFACE_CURVE('',#252,(#258,#265),.PCURVE_S1.);
#252 = B_SPLINE_CURVE_WITH_KNOTS('',3,(#253,#254,#255,#256,#257),
  .UNSPECIFIED.,.F.,.F.,(4,1,4),(0.,0.5,1.),.QUASI_UNIFORM_KNOTS.);
#253 = CARTESIAN_POINT('',(-10.,1.224646799147E-15,0.));
#254 = CARTESIAN_POINT('',(-13.33333333333,1.632862398863E-15,10.));
#255 = CARTESIAN_POINT('',(-20.,2.449293598295E-15,30.));
#256 = CARTESIAN_POINT('',(-26.66666666666,3.265724797726E-15,50.));
#257 = CARTESIAN_POINT('',(-30.,3.673940397442E-15,60.));
#258 = PCURVE('',#150,#259);
#259 = DEFINITIONAL_REPRESENTATION('',(#260),#264);
#260 = LINE('',#261,#262);
#261 = CARTESIAN_POINT('',(1.,0.));
#262 = VECTOR('',#263,1.);
#263 = DIRECTION('',(0.,1.));
#264 = ( GEOMETRIC_REPRESENTATION_CONTEXT(2) 
PARAMETRIC_REPRESENTATION_CONTEXT() REPRESENTATION_CONTEXT('2D SPACE',''
  ) );
#265 = PCURVE('',#266,#292);
#266 = B_SPLINE_SURFACE_WITH_KNOTS('',3,3,(
    (#267,#268,#269,#270,#271)
    ,(#272,#273,#274,#275,#276)
    ,(#277,#278,#279,#280,#281)
    ,(#282,#283,#284,#285,#286)
    ,(#287,#288,#289,#290,#291
    )),.UNSPECIFIED.,.F.,.F.,.F.,(4,1,4),(4,1,4),(0.,0.5,1.),(0.,0.5,1.)
  ,.QUASI_UNIFORM_KNOTS.);
#267 = CARTESIAN_POINT('',(-10.,1.224646799147E-15,0.));
#268 = CARTESIAN_POINT('',(-13.33333333333,1.632862398863E-15,10.));
#269 = CARTESIAN_POINT('',(-20.,2.449293598295E-15,30.));
#270 = CARTESIAN_POINT('',(-26.66666666666,3.265724797726E-15,50.));
#271 = CARTESIAN_POINT('',(-30.,3.673940397442E-15,60.));
#272 = CARTESIAN_POINT('',(-10.02560333938,-2.626561559009,0.));
#273 = CARTESIAN_POINT('',(-13.36747111918,-3.502082078679,10.));
#274 = CARTESIAN_POINT('',(-20.05120667877,-5.253123118019,30.));
#275 = CARTESIAN_POINT('',(-26.73494223836,-7.004164157358,50.));
#276 = CARTESIAN_POINT('',(-30.07681001815,-7.879684677028,60.));
#277 = CARTESIAN_POINT('',(-7.816053174533,-7.816053174533,0.));
#278 = CARTESIAN_POINT('',(-10.42140423271,-10.42140423271,10.));
#279 = CARTESIAN_POINT('',(-15.63210634906,-15.63210634906,30.));
#280 = CARTESIAN_POINT('',(-20.84280846542,-20.84280846542,50.));
#281 = CARTESIAN_POINT('',(-23.4481595236,-23.4481595236,60.));
#282 = CARTESIAN_POINT('',(-2.626561559009,-10.02560333938,0.));
#283 = CARTESIAN_POINT('',(-3.502082078679,-13.36747111918,10.));
#284 = CARTESIAN_POINT('',(-5.253123118019,-20.05120667877,30.));
#285 = CARTESIAN_POINT('',(-7.004164157358,-26.73494223836,50.));
#286 = CARTESIAN_POINT('',(-7.879684677028,-30.07681001815,60.));
#287 = CARTESIAN_POINT('',(-1.836970198721E-15,-10.,0.));
#288 = CARTESIAN_POINT('',(-2.449293598295E-15,-13.33333333333,10.));
#289 = CARTESIAN_POINT('',(-3.673940397442E-15,-20.,30.));
#290 = CARTESIAN_POINT('',(-4.898587196589E-15,-26.66666666666,50.));
#291 = CARTESIAN_POINT('',(-5.510910596163E-15,-30.,60.));
#292 = DEFINITIONAL_REPRESENTATION('',(#293),#297);
#293 = LINE('',#294,#295);
#294 = CARTESIAN_POINT('',(0.,0.));
#295 = VECTOR('',#296,1.);
#296 = DIRECTION('',(0.,1.));
#297 = ( GEOMETRIC_REPRESENTATION_CONTEXT(2) 
PARAMETRIC_REPRESENTATION_CONTEXT() REPRESENTATION_CONTEXT('2D SPACE',''
  ) );
#298 = ORIENTED_EDGE('',*,*,#299,.F.);
#299 = EDGE_CURVE('',#133,#249,#300,.T.);
#300 = SURFACE_CURVE('',#301,(#307,#314),.PCURVE_S1.);
#301 = B_SPLINE_CURVE_WITH_KNOTS('',3,(#302,#303,#304,#305,#306),
  .UNSPECIFIED.,.F.,.F.,(4,1,4),(0.,0.5,1.),.QUASI_UNIFORM_KNOTS.);
#302 = CARTESIAN_POINT('',(1.836970198721E-15,30.,60.));
#303 = CARTESIAN_POINT('',(-7.879684677028,30.076810018158,60.));
#304 = CARTESIAN_POINT('',(-23.4481595236,23.4481595236,60.));
#305 = CARTESIAN_POINT('',(-30.07681001815,7.879684677028,60.));
#306 = CARTESIAN_POINT('',(-30.,3.673940397442E-15,60.));
#307 = PCURVE('',#150,#308);
#308 = DEFINITIONAL_REPRESENTATION('',(#309),#313);
#309 = LINE('',#310,#311);
#310 = CARTESIAN_POINT('',(0.,1.));
#311 = VECTOR('',#312,1.);
#312 = DIRECTION('',(1.,0.));
#313 = ( GEOMETRIC_REPRESENTATION_CONTEXT(2) 
PARAMETRIC_REPRESENTATION_CONTEXT() REPRESENTATION_CONTEXT('2D SPACE',''
  ) );
#314 = PCURVE('',#315,#326);
#315 = B_SPLINE_SURFACE_WITH_KNOTS('',3,1,(
    (#316,#317)
    ,(#318,#319)
    ,(#320,#321)
    ,(#322,#323)
    ,(#324,#325
    )),.UNSPECIFIED.,.F.,.F.,.F.,(4,1,4),(2,2),(0.,0.5,1.),(0.,1.),
  .UNSPECIFIED.);
#316 = CARTESIAN_POINT('',(-30.,3.673940397442E-15,60.));
#317 = CARTESIAN_POINT('',(-29.,3.551475717527E-15,45.));
#318 = CARTESIAN_POINT('',(-30.07681001815,7.879684677028,60.));
#319 = CARTESIAN_POINT('',(-29.07424968422,7.617028521127,45.));
#320 = CARTESIAN_POINT('',(-23.4481595236,23.4481595236,60.));
#321 = CARTESIAN_POINT('',(-22.66655420614,22.666554206146,45.));
#322 = CARTESIAN_POINT('',(-7.879684677028,30.076810018158,60.));
#323 = CARTESIAN_POINT('',(-7.617028521127,29.07424968422,45.));
#324 = CARTESIAN_POINT('',(1.836970198721E-15,30.,60.));
#325 = CARTESIAN_POINT('',(1.775737858764E-15,29.,45.));
#326 = DEFINITIONAL_REPRESENTATION('',(#327),#331);
#327 = LINE('',#328,#329);
#328 = CARTESIAN_POINT('',(1.,0.));
#329 = VECTOR('',#330,1.);
#330 = DIRECTION('',(-1.,0.));
#331 = ( GEOMETRIC_REPRESENTATION_CONTEXT(2) 
PARAMETRIC_REPRESENTATION_CONTEXT() REPRESENTATION_CONTEXT('2D SPACE',''
  ) );
#332 = ADVANCED_FACE('',(#333),#266,.F.);
#333 = FACE_BOUND('',#334,.F.);
#334 = EDGE_LOOP('',(#335,#336,#363,#388));
#335 = ORIENTED_EDGE('',*,*,#248,.F.);
#336 = ORIENTED_EDGE('',*,*,#337,.T.);
#337 = EDGE_CURVE('',#222,#338,#340,.T.);
#338 = VERTEX_POINT('',#339);
#339 = CARTESIAN_POINT('',(-1.836970198721E-15,-10.,0.));
#340 = SURFACE_CURVE('',#341,(#347,#354),.PCURVE_S1.);
#341 = B_SPLINE_CURVE_WITH_KNOTS('',3,(#342,#343,#344,#345,#346),
  .UNSPECIFIED.,.F.,.F.,(4,1,4),(0.,0.5,1.),.QUASI_UNIFORM_KNOTS.);
#342 = CARTESIAN_POINT('',(-10.,1.224646799147E-15,0.));
#343 = CARTESIAN_POINT('',(-10.02560333938,-2.626561559009,0.));
#344 = CARTESIAN_POINT('',(-7.816053174533,-7.816053174533,0.));
#345 = CARTESIAN_POINT('',(-2.626561559009,-10.02560333938,0.));
#346 = CARTESIAN_POINT('',(-1.836970198721E-15,-10.,0.));
#347 = PCURVE('',#266,#348);
#348 = DEFINITIONAL_REPRESENTATION('',(#349),#353);
#349 = LINE('',#350,#351);
#350 = CARTESIAN_POINT('',(0.,0.));
#351 = VECTOR('',#352,1.);
#352 = DIRECTION('',(1.,0.));
#353 = ( GEOMETRIC_REPRESENTATION_CONTEXT(2) 
PARAMETRIC_REPRESENTATION_CONTEXT() REPRESENTATION_CONTEXT('2D SPACE',''
  ) );
#354 = PCURVE('',#118,#355);
#355 = DEFINITIONAL_REPRESENTATION('',(#356),#362);
#356 = B_SPLINE_CURVE_WITH_KNOTS('',3,(#357,#358,#359,#360,#361),
  .UNSPECIFIED.,.F.,.F.,(4,1,4),(0.,0.5,1.),.QUASI_UNIFORM_KNOTS.);
#357 = CARTESIAN_POINT('',(-10.,7.426869364541E-16));
#358 = CARTESIAN_POINT('',(-10.02560333938,-2.626561559009));
#359 = CARTESIAN_POINT('',(-7.816053174533,-7.816053174533));
#360 = CARTESIAN_POINT('',(-2.626561559009,-10.02560333938));
#361 = CARTESIAN_POINT('',(-1.525113816978E-15,-10.));
#362 = ( GEOMETRIC_REPRESENTATION_CONTEXT(2) 
PARAMETRIC_REPRESENTATION_CONTEXT() REPRESENTATION_CONTEXT('2D SPACE',''
  ) );
#363 = ORIENTED_EDGE('',*,*,#364,.T.);
#364 = EDGE_CURVE('',#338,#365,#367,.T.);
#365 = VERTEX_POINT('',#366);
#366 = CARTESIAN_POINT('',(-5.510910596163E-15,-30.,60.));
#367 = SURFACE_CURVE('',#368,(#374,#381),.PCURVE_S1.);
#368 = B_SPLINE_CURVE_WITH_KNOTS('',3,(#369,#370,#371,#372,#373),
  .UNSPECIFIED.,.F.,.F.,(4,1,4),(0.,0.5,1.),.QUASI_UNIFORM_KNOTS.);
#369 = CARTESIAN_POINT('',(-1.836970198721E-15,-10.,0.));
#370 = CARTESIAN_POINT('',(-2.449293598295E-15,-13.33333333333,10.));
#371 = CARTESIAN_POINT('',(-3.673940397442E-15,-20.,30.));
#372 = CARTESIAN_POINT('',(-4.898587196589E-15,-26.66666666666,50.));
#373 = CARTESIAN_POINT('',(-5.510910596163E-15,-30.,60.));
#374 = PCURVE('',#266,#375);
#375 = DEFINITIONAL_REPRESENTATION('',(#376),#380);
#376 = LINE('',#377,#378);
#377 = CARTESIAN_POINT('',(1.,0.));
#378 = VECTOR('',#379,1.);
#379 = DIRECTION('',(0.,1.));
#380 = ( GEOMETRIC_REPRESENTATION_CONTEXT(2) 
PARAMETRIC_REPRESENTATION_CONTEXT() REPRESENTATION_CONTEXT('2D SPACE',''
  ) );
#381 = PCURVE('',#67,#382);
#382 = DEFINITIONAL_REPRESENTATION('',(#383),#387);
#383 = LINE('',#384,#385);
#384 = CARTESIAN_POINT('',(0.,0.));
#385 = VECTOR('',#386,1.);
#386 = DIRECTION('',(0.,1.));
#387 = ( GEOMETRIC_REPRESENTATION_CONTEXT(2) 
PARAMETRIC_REPRESENTATION_CONTEXT() REPRESENTATION_CONTEXT('2D SPACE',''
  ) );
#388 = ORIENTED_EDGE('',*,*,#389,.F.);
#389 = EDGE_CURVE('',#249,#365,#390,.T.);
#390 = SURFACE_CURVE('',#391,(#397,#404),.PCURVE_S1.);
#391 = B_SPLINE_CURVE_WITH_KNOTS('',3,(#392,#393,#394,#395,#396),
  .UNSPECIFIED.,.F.,.F.,(4,1,4),(0.,0.5,1.),.QUASI_UNIFORM_KNOTS.);
#392 = CARTESIAN_POINT('',(-30.,3.673940397442E-15,60.));
#393 = CARTESIAN_POINT('',(-30.07681001815,-7.879684677028,60.));
#394 = CARTESIAN_POINT('',(-23.4481595236,-23.4481595236,60.));
#395 = CARTESIAN_POINT('',(-7.879684677028,-30.07681001815,60.));
#396 = CARTESIAN_POINT('',(-5.510910596163E-15,-30.,60.));
#397 = PCURVE('',#266,#398);
#398 = DEFINITIONAL_REPRESENTATION('',(#399),#403);
#399 = LINE('',#400,#401);
#400 = CARTESIAN_POINT('',(0.,1.));
#401 = VECTOR('',#402,1.);
#402 = DIRECTION('',(1.,0.));
#403 = ( GEOMETRIC_REPRESENTATION_CONTEXT(2) 
PARAMETRIC_REPRESENTATION_CONTEXT() REPRESENTATION_CONTEXT('2D SPACE',''
  ) );
#404 = PCURVE('',#405,#416);
#405 = B_SPLINE_SURFACE_WITH_KNOTS('',3,1,(
    (#406,#407)
    ,(#408,#409)
    ,(#410,#411)
    ,(#412,#413)
    ,(#414,#415
    )),.UNSPECIFIED.,.F.,.F.,.F.,(4,1,4),(2,2),(0.,0.5,1.),(0.,1.),
  .UNSPECIFIED.);
#406 = CARTESIAN_POINT('',(-5.510910596163E-15,-30.,60.));
#407 = CARTESIAN_POINT('',(-5.327213576291E-15,-29.,45.));
#408 = CARTESIAN_POINT('',(-7.879684677028,-30.07681001815,60.));
#409 = CARTESIAN_POINT('',(-7.617028521127,-29.07424968422,45.));
#410 = CARTESIAN_POINT('',(-23.4481595236,-23.4481595236,60.));
#411 = CARTESIAN_POINT('',(-22.66655420614,-22.66655420614,45.));
#412 = CARTESIAN_POINT('',(-30.07681001815,-7.879684677028,60.));
#413 = CARTESIAN_POINT('',(-29.07424968422,-7.617028521127,45.));
#414 = CARTESIAN_POINT('',(-30.,3.673940397442E-15,60.));
#415 = CARTESIAN_POINT('',(-29.,3.551475717527E-15,45.));
#416 = DEFINITIONAL_REPRESENTATION('',(#417),#421);
#417 = LINE('',#418,#419);
#418 = CARTESIAN_POINT('',(1.,0.));
#419 = VECTOR('',#420,1.);
#420 = DIRECTION('',(-1.,0.));
#421 = ( GEOMETRIC_REPRESENTATION_CONTEXT(2) 
PARAMETRIC_REPRESENTATION_CONTEXT() REPRESENTATION_CONTEXT('2D SPACE',''
  ) );
#422 = ADVANCED_FACE('',(#423),#67,.F.);
#423 = FACE_BOUND('',#424,.F.);
#424 = EDGE_LOOP('',(#425,#426,#451,#452));
#425 = ORIENTED_EDGE('',*,*,#364,.F.);
#426 = ORIENTED_EDGE('',*,*,#427,.T.);
#427 = EDGE_CURVE('',#338,#22,#428,.T.);
#428 = SURFACE_CURVE('',#429,(#435,#442),.PCURVE_S1.);
#429 = B_SPLINE_CURVE_WITH_KNOTS('',3,(#430,#431,#432,#433,#434),
  .UNSPECIFIED.,.F.,.F.,(4,1,4),(0.,0.5,1.),.QUASI_UNIFORM_KNOTS.);
#430 = CARTESIAN_POINT('',(-1.836970198721E-15,-10.,0.));
#431 = CARTESIAN_POINT('',(2.626561559009,-10.02560333938,0.));
#432 = CARTESIAN_POINT('',(7.816053174533,-7.816053174533,0.));
#433 = CARTESIAN_POINT('',(10.025603339386,-2.626561559009,0.));
#434 = CARTESIAN_POINT('',(10.,0.,0.));
#435 = PCURVE('',#67,#436);
#436 = DEFINITIONAL_REPRESENTATION('',(#437),#441);
#437 = LINE('',#438,#439);
#438 = CARTESIAN_POINT('',(0.,0.));
#439 = VECTOR('',#440,1.);
#440 = DIRECTION('',(1.,0.));
#441 = ( GEOMETRIC_REPRESENTATION_CONTEXT(2) 
PARAMETRIC_REPRESENTATION_CONTEXT() REPRESENTATION_CONTEXT('2D SPACE',''
  ) );
#442 = PCURVE('',#118,#443);
#443 = DEFINITIONAL_REPRESENTATION('',(#444),#450);
#444 = B_SPLINE_CURVE_WITH_KNOTS('',3,(#445,#446,#447,#448,#449),
  .UNSPECIFIED.,.F.,.F.,(4,1,4),(0.,0.5,1.),.QUASI_UNIFORM_KNOTS.);
#445 = CARTESIAN_POINT('',(-1.525113816978E-15,-10.));
#446 = CARTESIAN_POINT('',(2.626561559009,-10.02560333938));
#447 = CARTESIAN_POINT('',(7.816053174533,-7.816053174533));
#448 = CARTESIAN_POINT('',(10.025603339386,-2.626561559009));
#449 = CARTESIAN_POINT('',(10.,-4.819598626933E-16));
#450 = ( GEOMETRIC_REPRESENTATION_CONTEXT(2) 
PARAMETRIC_REPRESENTATION_CONTEXT() REPRESENTATION_CONTEXT('2D SPACE',''
  ) );
#451 = ORIENTED_EDGE('',*,*,#21,.T.);
#452 = ORIENTED_EDGE('',*,*,#453,.F.);
#453 = EDGE_CURVE('',#365,#24,#454,.T.);
#454 = SURFACE_CURVE('',#455,(#461,#468),.PCURVE_S1.);
#455 = B_SPLINE_CURVE_WITH_KNOTS('',3,(#456,#457,#458,#459,#460),
  .UNSPECIFIED.,.F.,.F.,(4,1,4),(0.,0.5,1.),.QUASI_UNIFORM_KNOTS.);
#456 = CARTESIAN_POINT('',(-5.510910596163E-15,-30.,60.));
#457 = CARTESIAN_POINT('',(7.879684677028,-30.07681001815,60.));
#458 = CARTESIAN_POINT('',(23.4481595236,-23.4481595236,60.));
#459 = CARTESIAN_POINT('',(30.076810018158,-7.879684677028,60.));
#460 = CARTESIAN_POINT('',(30.,0.,60.));
#461 = PCURVE('',#67,#462);
#462 = DEFINITIONAL_REPRESENTATION('',(#463),#467);
#463 = LINE('',#464,#465);
#464 = CARTESIAN_POINT('',(0.,1.));
#465 = VECTOR('',#466,1.);
#466 = DIRECTION('',(1.,0.));
#467 = ( GEOMETRIC_REPRESENTATION_CONTEXT(2) 
PARAMETRIC_REPRESENTATION_CONTEXT() REPRESENTATION_CONTEXT('2D SPACE',''
  ) );
#468 = PCURVE('',#469,#480);
#469 = B_SPLINE_SURFACE_WITH_KNOTS('',3,1,(
    (#470,#471)
    ,(#472,#473)
    ,(#474,#475)
    ,(#476,#477)
    ,(#478,#479
    )),.UNSPECIFIED.,.F.,.F.,.F.,(4,1,4),(2,2),(0.,0.5,1.),(0.,1.),
  .UNSPECIFIED.);
#470 = CARTESIAN_POINT('',(30.,0.,60.));
#471 = CARTESIAN_POINT('',(29.,0.,45.));
#472 = CARTESIAN_POINT('',(30.076810018158,-7.879684677028,60.));
#473 = CARTESIAN_POINT('',(29.07424968422,-7.617028521127,45.));
#474 = CARTESIAN_POINT('',(23.4481595236,-23.4481595236,60.));
#475 = CARTESIAN_POINT('',(22.666554206146,-22.66655420614,45.));
#476 = CARTESIAN_POINT('',(7.879684677028,-30.07681001815,60.));
#477 = CARTESIAN_POINT('',(7.617028521127,-29.07424968422,45.));
#478 = CARTESIAN_POINT('',(-5.510910596163E-15,-30.,60.));
#479 = CARTESIAN_POINT('',(-5.327213576291E-15,-29.,45.));
#480 = DEFINITIONAL_REPRESENTATION('',(#481),#485);
#481 = LINE('',#482,#483);
#482 = CARTESIAN_POINT('',(1.,0.));
#483 = VECTOR('',#484,1.);
#484 = DIRECTION('',(-1.,0.));
#485 = ( GEOMETRIC_REPRESENTATION_CONTEXT(2) 
PARAMETRIC_REPRESENTATION_CONTEXT() REPRESENTATION_CONTEXT('2D SPACE',''
  ) );
#486 = ADVANCED_FACE('',(#487),#199,.T.);
#487 = FACE_BOUND('',#488,.T.);
#488 = EDGE_LOOP('',(#489,#490,#512,#563));
#489 = ORIENTED_EDGE('',*,*,#183,.F.);
#490 = ORIENTED_EDGE('',*,*,#491,.T.);
#491 = EDGE_CURVE('',#24,#492,#494,.T.);
#492 = VERTEX_POINT('',#493);
#493 = CARTESIAN_POINT('',(29.,0.,45.));
#494 = SURFACE_CURVE('',#495,(#498,#505),.PCURVE_S1.);
#495 = B_SPLINE_CURVE_WITH_KNOTS('',1,(#496,#497),.UNSPECIFIED.,.F.,.F.,
  (2,2),(0.,1.),.PIECEWISE_BEZIER_KNOTS.);
#496 = CARTESIAN_POINT('',(30.,0.,60.));
#497 = CARTESIAN_POINT('',(29.,0.,45.));
#498 = PCURVE('',#199,#499);
#499 = DEFINITIONAL_REPRESENTATION('',(#500),#504);
#500 = LINE('',#501,#502);
#501 = CARTESIAN_POINT('',(1.,0.));
#502 = VECTOR('',#503,1.);
#503 = DIRECTION('',(0.,1.));
#504 = ( GEOMETRIC_REPRESENTATION_CONTEXT(2) 
PARAMETRIC_REPRESENTATION_CONTEXT() REPRESENTATION_CONTEXT('2D SPACE',''
  ) );
#505 = PCURVE('',#469,#506);
#506 = DEFINITIONAL_REPRESENTATION('',(#507),#511);
#507 = LINE('',#508,#509);
#508 = CARTESIAN_POINT('',(0.,0.));
#509 = VECTOR('',#510,1.);
#510 = DIRECTION('',(0.,1.));
#511 = ( GEOMETRIC_REPRESENTATION_CONTEXT(2) 
PARAMETRIC_REPRESENTATION_CONTEXT() REPRESENTATION_CONTEXT('2D SPACE',''
  ) );
#512 = ORIENTED_EDGE('',*,*,#513,.T.);
#513 = EDGE_CURVE('',#492,#514,#516,.T.);
#514 = VERTEX_POINT('',#515);
#515 = CARTESIAN_POINT('',(1.775737858764E-15,29.,45.));
#516 = SURFACE_CURVE('',#517,(#523,#530),.PCURVE_S1.);
#517 = B_SPLINE_CURVE_WITH_KNOTS('',3,(#518,#519,#520,#521,#522),
  .UNSPECIFIED.,.F.,.F.,(4,1,4),(0.,0.5,1.),.QUASI_UNIFORM_KNOTS.);
#518 = CARTESIAN_POINT('',(29.,0.,45.));
#519 = CARTESIAN_POINT('',(29.07424968422,7.617028521127,45.));
#520 = CARTESIAN_POINT('',(22.666554206146,22.666554206146,45.));
#521 = CARTESIAN_POINT('',(7.617028521127,29.07424968422,45.));
#522 = CARTESIAN_POINT('',(1.775737858764E-15,29.,45.));
#523 = PCURVE('',#199,#524);
#524 = DEFINITIONAL_REPRESENTATION('',(#525),#529);
#525 = LINE('',#526,#527);
#526 = CARTESIAN_POINT('',(1.,1.));
#527 = VECTOR('',#528,1.);
#528 = DIRECTION('',(-1.,0.));
#529 = ( GEOMETRIC_REPRESENTATION_CONTEXT(2) 
PARAMETRIC_REPRESENTATION_CONTEXT() REPRESENTATION_CONTEXT('2D SPACE',''
  ) );
#530 = PCURVE('',#531,#557);
#531 = B_SPLINE_SURFACE_WITH_KNOTS('',3,3,(
    (#532,#533,#534,#535,#536)
    ,(#537,#538,#539,#540,#541)
    ,(#542,#543,#544,#545,#546)
    ,(#547,#548,#549,#550,#551)
    ,(#552,#553,#554,#555,#556
    )),.UNSPECIFIED.,.F.,.F.,.F.,(4,1,4),(4,1,4),(0.,0.5,1.),(0.,1.,2.),
  .QUASI_UNIFORM_KNOTS.);
#532 = CARTESIAN_POINT('',(14.,0.,-4.));
#533 = CARTESIAN_POINT('',(14.,0.,0.));
#534 = CARTESIAN_POINT('',(19.,0.,15.));
#535 = CARTESIAN_POINT('',(24.,0.,30.));
#536 = CARTESIAN_POINT('',(29.,0.,45.));
#537 = CARTESIAN_POINT('',(14.035844675141,3.677186182613,-4.));
#538 = CARTESIAN_POINT('',(14.035844675141,3.677186182613,0.));
#539 = CARTESIAN_POINT('',(19.048646344834,4.990466962118,15.));
#540 = CARTESIAN_POINT('',(24.061448014527,6.303747741622,30.));
#541 = CARTESIAN_POINT('',(29.07424968422,7.617028521127,45.));
#542 = CARTESIAN_POINT('',(10.942474444347,10.942474444347,-4.));
#543 = CARTESIAN_POINT('',(10.942474444347,10.942474444347,0.));
#544 = CARTESIAN_POINT('',(14.850501031613,14.850501031613,15.));
#545 = CARTESIAN_POINT('',(18.75852761888,18.75852761888,30.));
#546 = CARTESIAN_POINT('',(22.666554206146,22.666554206146,45.));
#547 = CARTESIAN_POINT('',(3.677186182613,14.035844675141,-4.));
#548 = CARTESIAN_POINT('',(3.677186182613,14.035844675141,0.));
#549 = CARTESIAN_POINT('',(4.990466962118,19.048646344834,15.));
#550 = CARTESIAN_POINT('',(6.303747741622,24.061448014527,30.));
#551 = CARTESIAN_POINT('',(7.617028521127,29.07424968422,45.));
#552 = CARTESIAN_POINT('',(8.572527594031E-16,14.,-4.));
#553 = CARTESIAN_POINT('',(8.572527594031E-16,14.,0.));
#554 = CARTESIAN_POINT('',(1.16341445919E-15,19.,15.));
#555 = CARTESIAN_POINT('',(1.469576158977E-15,24.,30.));
#556 = CARTESIAN_POINT('',(1.775737858764E-15,29.,45.));
#557 = DEFINITIONAL_REPRESENTATION('',(#558),#562);
#558 = LINE('',#559,#560);
#559 = CARTESIAN_POINT('',(0.,2.));
#560 = VECTOR('',#561,1.);
#561 = DIRECTION('',(1.,0.));
#562 = ( GEOMETRIC_REPRESENTATION_CONTEXT(2) 
PARAMETRIC_REPRESENTATION_CONTEXT() REPRESENTATION_CONTEXT('2D SPACE',''
  ) );
#563 = ORIENTED_EDGE('',*,*,#564,.F.);
#564 = EDGE_CURVE('',#133,#514,#565,.T.);
#565 = SURFACE_CURVE('',#566,(#569,#576),.PCURVE_S1.);
#566 = B_SPLINE_CURVE_WITH_KNOTS('',1,(#567,#568),.UNSPECIFIED.,.F.,.F.,
  (2,2),(0.,1.),.PIECEWISE_BEZIER_KNOTS.);
#567 = CARTESIAN_POINT('',(1.836970198721E-15,30.,60.));
#568 = CARTESIAN_POINT('',(1.775737858764E-15,29.,45.));
#569 = PCURVE('',#199,#570);
#570 = DEFINITIONAL_REPRESENTATION('',(#571),#575);
#571 = LINE('',#572,#573);
#572 = CARTESIAN_POINT('',(0.,0.));
#573 = VECTOR('',#574,1.);
#574 = DIRECTION('',(0.,1.));
#575 = ( GEOMETRIC_REPRESENTATION_CONTEXT(2) 
PARAMETRIC_REPRESENTATION_CONTEXT() REPRESENTATION_CONTEXT('2D SPACE',''
  ) );
#576 = PCURVE('',#315,#577);
#577 = DEFINITIONAL_REPRESENTATION('',(#578),#582);
#578 = LINE('',#579,#580);
#579 = CARTESIAN_POINT('',(1.,0.));
#580 = VECTOR('',#581,1.);
#581 = DIRECTION('',(0.,1.));
#582 = ( GEOMETRIC_REPRESENTATION_CONTEXT(2) 
PARAMETRIC_REPRESENTATION_CONTEXT() REPRESENTATION_CONTEXT('2D SPACE',''
  ) );
#583 = ADVANCED_FACE('',(#584),#531,.T.);
#584 = FACE_BOUND('',#585,.T.);
#585 = EDGE_LOOP('',(#586,#637,#669,#718));
#586 = ORIENTED_EDGE('',*,*,#587,.F.);
#587 = EDGE_CURVE('',#588,#492,#590,.T.);
#588 = VERTEX_POINT('',#589);
#589 = CARTESIAN_POINT('',(14.,0.,-4.));
#590 = SURFACE_CURVE('',#591,(#597,#604),.PCURVE_S1.);
#591 = B_SPLINE_CURVE_WITH_KNOTS('',3,(#592,#593,#594,#595,#596),
  .UNSPECIFIED.,.F.,.F.,(4,1,4),(0.,1.,2.),.QUASI_UNIFORM_KNOTS.);
#592 = CARTESIAN_POINT('',(14.,0.,-4.));
#593 = CARTESIAN_POINT('',(14.,0.,0.));
#594 = CARTESIAN_POINT('',(19.,0.,15.));
#595 = CARTESIAN_POINT('',(24.,0.,30.));
#596 = CARTESIAN_POINT('',(29.,0.,45.));
#597 = PCURVE('',#531,#598);
#598 = DEFINITIONAL_REPRESENTATION('',(#599),#603);
#599 = LINE('',#600,#601);
#600 = CARTESIAN_POINT('',(0.,0.));
#601 = VECTOR('',#602,1.);
#602 = DIRECTION('',(0.,1.));
#603 = ( GEOMETRIC_REPRESENTATION_CONTEXT(2) 
PARAMETRIC_REPRESENTATION_CONTEXT() REPRESENTATION_CONTEXT('2D SPACE',''
  ) );
#604 = PCURVE('',#605,#631);
#605 = B_SPLINE_SURFACE_WITH_KNOTS('',3,3,(
    (#606,#607,#608,#609,#610)
    ,(#611,#612,#613,#614,#615)
    ,(#616,#617,#618,#619,#620)
    ,(#621,#622,#623,#624,#625)
    ,(#626,#627,#628,#629,#630
    )),.UNSPECIFIED.,.F.,.F.,.F.,(4,1,4),(4,1,4),(0.,0.5,1.),(0.,1.,2.),
  .QUASI_UNIFORM_KNOTS.);
#606 = CARTESIAN_POINT('',(-2.571758278209E-15,-14.,-4.));
#607 = CARTESIAN_POINT('',(-2.571758278209E-15,-14.,0.));
#608 = CARTESIAN_POINT('',(-3.49024337757E-15,-19.,15.));
#609 = CARTESIAN_POINT('',(-4.40872847693E-15,-24.,30.));
#610 = CARTESIAN_POINT('',(-5.327213576291E-15,-29.,45.));
#611 = CARTESIAN_POINT('',(3.677186182613,-14.03584467514,-4.));
#612 = CARTESIAN_POINT('',(3.677186182613,-14.03584467514,0.));
#613 = CARTESIAN_POINT('',(4.990466962118,-19.04864634483,15.));
#614 = CARTESIAN_POINT('',(6.303747741622,-24.06144801452,30.));
#615 = CARTESIAN_POINT('',(7.617028521127,-29.07424968422,45.));
#616 = CARTESIAN_POINT('',(10.942474444347,-10.94247444434,-4.));
#617 = CARTESIAN_POINT('',(10.942474444347,-10.94247444434,0.));
#618 = CARTESIAN_POINT('',(14.850501031613,-14.85050103161,15.));
#619 = CARTESIAN_POINT('',(18.75852761888,-18.75852761888,30.));
#620 = CARTESIAN_POINT('',(22.666554206146,-22.66655420614,45.));
#621 = CARTESIAN_POINT('',(14.035844675141,-3.677186182613,-4.));
#622 = CARTESIAN_POINT('',(14.035844675141,-3.677186182613,0.));
#623 = CARTESIAN_POINT('',(19.048646344834,-4.990466962118,15.));
#624 = CARTESIAN_POINT('',(24.061448014527,-6.303747741622,30.));
#625 = CARTESIAN_POINT('',(29.07424968422,-7.617028521127,45.));
#626 = CARTESIAN_POINT('',(14.,0.,-4.));
#627 = CARTESIAN_POINT('',(14.,0.,0.));
#628 = CARTESIAN_POINT('',(19.,0.,15.));
#629 = CARTESIAN_POINT('',(24.,0.,30.));
#630 = CARTESIAN_POINT('',(29.,0.,45.));
#631 = DEFINITIONAL_REPRESENTATION('',(#632),#636);
#632 = LINE('',#633,#634);
#633 = CARTESIAN_POINT('',(1.,0.));
#634 = VECTOR('',#635,1.);
#635 = DIRECTION('',(0.,1.));
#636 = ( GEOMETRIC_REPRESENTATION_CONTEXT(2) 
PARAMETRIC_REPRESENTATION_CONTEXT() REPRESENTATION_CONTEXT('2D SPACE',''
  ) );
#637 = ORIENTED_EDGE('',*,*,#638,.T.);
#638 = EDGE_CURVE('',#588,#639,#641,.T.);
#639 = VERTEX_POINT('',#640);
#640 = CARTESIAN_POINT('',(8.572527594031E-16,14.,-4.));
#641 = SURFACE_CURVE('',#642,(#648,#655),.PCURVE_S1.);
#642 = B_SPLINE_CURVE_WITH_KNOTS('',3,(#643,#644,#645,#646,#647),
  .UNSPECIFIED.,.F.,.F.,(4,1,4),(0.,0.5,1.),.QUASI_UNIFORM_KNOTS.);
#643 = CARTESIAN_POINT('',(14.,0.,-4.));
#644 = CARTESIAN_POINT('',(14.035844675141,3.677186182613,-4.));
#645 = CARTESIAN_POINT('',(10.942474444347,10.942474444347,-4.));
#646 = CARTESIAN_POINT('',(3.677186182613,14.035844675141,-4.));
#647 = CARTESIAN_POINT('',(8.572527594031E-16,14.,-4.));
#648 = PCURVE('',#531,#649);
#649 = DEFINITIONAL_REPRESENTATION('',(#650),#654);
#650 = LINE('',#651,#652);
#651 = CARTESIAN_POINT('',(0.,0.));
#652 = VECTOR('',#653,1.);
#653 = DIRECTION('',(1.,0.));
#654 = ( GEOMETRIC_REPRESENTATION_CONTEXT(2) 
PARAMETRIC_REPRESENTATION_CONTEXT() REPRESENTATION_CONTEXT('2D SPACE',''
  ) );
#655 = PCURVE('',#656,#661);
#656 = PLANE('',#657);
#657 = AXIS2_PLACEMENT_3D('',#658,#659,#660);
#658 = CARTESIAN_POINT('',(-6.480132607641E-16,3.037562159831E-16,-4.));
#659 = DIRECTION('',(0.,0.,1.));
#660 = DIRECTION('',(1.,0.,-0.));
#661 = DEFINITIONAL_REPRESENTATION('',(#662),#668);
#662 = B_SPLINE_CURVE_WITH_KNOTS('',3,(#663,#664,#665,#666,#667),
  .UNSPECIFIED.,.F.,.F.,(4,1,4),(0.,0.5,1.),.QUASI_UNIFORM_KNOTS.);
#663 = CARTESIAN_POINT('',(14.,-3.037562159831E-16));
#664 = CARTESIAN_POINT('',(14.035844675141,3.677186182613));
#665 = CARTESIAN_POINT('',(10.942474444347,10.942474444347));
#666 = CARTESIAN_POINT('',(3.677186182613,14.035844675141));
#667 = CARTESIAN_POINT('',(1.505266020167E-15,14.));
#668 = ( GEOMETRIC_REPRESENTATION_CONTEXT(2) 
PARAMETRIC_REPRESENTATION_CONTEXT() REPRESENTATION_CONTEXT('2D SPACE',''
  ) );
#669 = ORIENTED_EDGE('',*,*,#670,.T.);
#670 = EDGE_CURVE('',#639,#514,#671,.T.);
#671 = SURFACE_CURVE('',#672,(#678,#685),.PCURVE_S1.);
#672 = B_SPLINE_CURVE_WITH_KNOTS('',3,(#673,#674,#675,#676,#677),
  .UNSPECIFIED.,.F.,.F.,(4,1,4),(0.,1.,2.),.QUASI_UNIFORM_KNOTS.);
#673 = CARTESIAN_POINT('',(8.572527594031E-16,14.,-4.));
#674 = CARTESIAN_POINT('',(8.572527594031E-16,14.,0.));
#675 = CARTESIAN_POINT('',(1.16341445919E-15,19.,15.));
#676 = CARTESIAN_POINT('',(1.469576158977E-15,24.,30.));
#677 = CARTESIAN_POINT('',(1.775737858764E-15,29.,45.));
#678 = PCURVE('',#531,#679);
#679 = DEFINITIONAL_REPRESENTATION('',(#680),#684);
#680 = LINE('',#681,#682);
#681 = CARTESIAN_POINT('',(1.,0.));
#682 = VECTOR('',#683,1.);
#683 = DIRECTION('',(0.,1.));
#684 = ( GEOMETRIC_REPRESENTATION_CONTEXT(2) 
PARAMETRIC_REPRESENTATION_CONTEXT() REPRESENTATION_CONTEXT('2D SPACE',''
  ) );
#685 = PCURVE('',#686,#712);
#686 = B_SPLINE_SURFACE_WITH_KNOTS('',3,3,(
    (#687,#688,#689,#690,#691)
    ,(#692,#693,#694,#695,#696)
    ,(#697,#698,#699,#700,#701)
    ,(#702,#703,#704,#705,#706)
    ,(#707,#708,#709,#710,#711
    )),.UNSPECIFIED.,.F.,.F.,.F.,(4,1,4),(4,1,4),(0.,0.5,1.),(0.,1.,2.),
  .QUASI_UNIFORM_KNOTS.);
#687 = CARTESIAN_POINT('',(8.572527594031E-16,14.,-4.));
#688 = CARTESIAN_POINT('',(8.572527594031E-16,14.,0.));
#689 = CARTESIAN_POINT('',(1.16341445919E-15,19.,15.));
#690 = CARTESIAN_POINT('',(1.469576158977E-15,24.,30.));
#691 = CARTESIAN_POINT('',(1.775737858764E-15,29.,45.));
#692 = CARTESIAN_POINT('',(-3.677186182613,14.035844675141,-4.));
#693 = CARTESIAN_POINT('',(-3.677186182613,14.035844675141,0.));
#694 = CARTESIAN_POINT('',(-4.990466962118,19.048646344834,15.));
#695 = CARTESIAN_POINT('',(-6.303747741622,24.061448014527,30.));
#696 = CARTESIAN_POINT('',(-7.617028521127,29.07424968422,45.));
#697 = CARTESIAN_POINT('',(-10.94247444434,10.942474444347,-4.));
#698 = CARTESIAN_POINT('',(-10.94247444434,10.942474444347,0.));
#699 = CARTESIAN_POINT('',(-14.85050103161,14.850501031613,15.));
#700 = CARTESIAN_POINT('',(-18.75852761888,18.75852761888,30.));
#701 = CARTESIAN_POINT('',(-22.66655420614,22.666554206146,45.));
#702 = CARTESIAN_POINT('',(-14.03584467514,3.677186182613,-4.));
#703 = CARTESIAN_POINT('',(-14.03584467514,3.677186182613,0.));
#704 = CARTESIAN_POINT('',(-19.04864634483,4.990466962118,15.));
#705 = CARTESIAN_POINT('',(-24.06144801452,6.303747741622,30.));
#706 = CARTESIAN_POINT('',(-29.07424968422,7.617028521127,45.));
#707 = CARTESIAN_POINT('',(-14.,1.714505518806E-15,-4.));
#708 = CARTESIAN_POINT('',(-14.,1.714505518806E-15,0.));
#709 = CARTESIAN_POINT('',(-19.,2.32682891838E-15,15.));
#710 = CARTESIAN_POINT('',(-24.,2.939152317954E-15,30.));
#711 = CARTESIAN_POINT('',(-29.,3.551475717527E-15,45.));
#712 = DEFINITIONAL_REPRESENTATION('',(#713),#717);
#713 = LINE('',#714,#715);
#714 = CARTESIAN_POINT('',(0.,0.));
#715 = VECTOR('',#716,1.);
#716 = DIRECTION('',(0.,1.));
#717 = ( GEOMETRIC_REPRESENTATION_CONTEXT(2) 
PARAMETRIC_REPRESENTATION_CONTEXT() REPRESENTATION_CONTEXT('2D SPACE',''
  ) );
#718 = ORIENTED_EDGE('',*,*,#513,.F.);
#719 = ADVANCED_FACE('',(#720),#686,.T.);
#720 = FACE_BOUND('',#721,.T.);
#721 = EDGE_LOOP('',(#722,#723,#750,#801));
#722 = ORIENTED_EDGE('',*,*,#670,.F.);
#723 = ORIENTED_EDGE('',*,*,#724,.T.);
#724 = EDGE_CURVE('',#639,#725,#727,.T.);
#725 = VERTEX_POINT('',#726);
#726 = CARTESIAN_POINT('',(-14.,1.714505518806E-15,-4.));
#727 = SURFACE_CURVE('',#728,(#734,#741),.PCURVE_S1.);
#728 = B_SPLINE_CURVE_WITH_KNOTS('',3,(#729,#730,#731,#732,#733),
  .UNSPECIFIED.,.F.,.F.,(4,1,4),(0.,0.5,1.),.QUASI_UNIFORM_KNOTS.);
#729 = CARTESIAN_POINT('',(8.572527594031E-16,14.,-4.));
#730 = CARTESIAN_POINT('',(-3.677186182613,14.035844675141,-4.));
#731 = CARTESIAN_POINT('',(-10.94247444434,10.942474444347,-4.));
#732 = CARTESIAN_POINT('',(-14.03584467514,3.677186182613,-4.));
#733 = CARTESIAN_POINT('',(-14.,1.714505518806E-15,-4.));
#734 = PCURVE('',#686,#735);
#735 = DEFINITIONAL_REPRESENTATION('',(#736),#740);
#736 = LINE('',#737,#738);
#737 = CARTESIAN_POINT('',(0.,0.));
#738 = VECTOR('',#739,1.);
#739 = DIRECTION('',(1.,0.));
#740 = ( GEOMETRIC_REPRESENTATION_CONTEXT(2) 
PARAMETRIC_REPRESENTATION_CONTEXT() REPRESENTATION_CONTEXT('2D SPACE',''
  ) );
#741 = PCURVE('',#656,#742);
#742 = DEFINITIONAL_REPRESENTATION('',(#743),#749);
#743 = B_SPLINE_CURVE_WITH_KNOTS('',3,(#744,#745,#746,#747,#748),
  .UNSPECIFIED.,.F.,.F.,(4,1,4),(0.,0.5,1.),.QUASI_UNIFORM_KNOTS.);
#744 = CARTESIAN_POINT('',(1.505266020167E-15,14.));
#745 = CARTESIAN_POINT('',(-3.677186182613,14.035844675141));
#746 = CARTESIAN_POINT('',(-10.94247444434,10.942474444347));
#747 = CARTESIAN_POINT('',(-14.03584467514,3.677186182613));
#748 = CARTESIAN_POINT('',(-14.,1.410749302823E-15));
#749 = ( GEOMETRIC_REPRESENTATION_CONTEXT(2) 
PARAMETRIC_REPRESENTATION_CONTEXT() REPRESENTATION_CONTEXT('2D SPACE',''
  ) );
#750 = ORIENTED_EDGE('',*,*,#751,.T.);
#751 = EDGE_CURVE('',#725,#752,#754,.T.);
#752 = VERTEX_POINT('',#753);
#753 = CARTESIAN_POINT('',(-29.,3.551475717527E-15,45.));
#754 = SURFACE_CURVE('',#755,(#761,#768),.PCURVE_S1.);
#755 = B_SPLINE_CURVE_WITH_KNOTS('',3,(#756,#757,#758,#759,#760),
  .UNSPECIFIED.,.F.,.F.,(4,1,4),(0.,1.,2.),.QUASI_UNIFORM_KNOTS.);
#756 = CARTESIAN_POINT('',(-14.,1.714505518806E-15,-4.));
#757 = CARTESIAN_POINT('',(-14.,1.714505518806E-15,0.));
#758 = CARTESIAN_POINT('',(-19.,2.32682891838E-15,15.));
#759 = CARTESIAN_POINT('',(-24.,2.939152317954E-15,30.));
#760 = CARTESIAN_POINT('',(-29.,3.551475717527E-15,45.));
#761 = PCURVE('',#686,#762);
#762 = DEFINITIONAL_REPRESENTATION('',(#763),#767);
#763 = LINE('',#764,#765);
#764 = CARTESIAN_POINT('',(1.,0.));
#765 = VECTOR('',#766,1.);
#766 = DIRECTION('',(0.,1.));
#767 = ( GEOMETRIC_REPRESENTATION_CONTEXT(2) 
PARAMETRIC_REPRESENTATION_CONTEXT() REPRESENTATION_CONTEXT('2D SPACE',''
  ) );
#768 = PCURVE('',#769,#795);
#769 = B_SPLINE_SURFACE_WITH_KNOTS('',3,3,(
    (#770,#771,#772,#773,#774)
    ,(#775,#776,#777,#778,#779)
    ,(#780,#781,#782,#783,#784)
    ,(#785,#786,#787,#788,#789)
    ,(#790,#791,#792,#793,#794
    )),.UNSPECIFIED.,.F.,.F.,.F.,(4,1,4),(4,1,4),(0.,0.5,1.),(0.,1.,2.),
  .QUASI_UNIFORM_KNOTS.);
#770 = CARTESIAN_POINT('',(-14.,1.714505518806E-15,-4.));
#771 = CARTESIAN_POINT('',(-14.,1.714505518806E-15,0.));
#772 = CARTESIAN_POINT('',(-19.,2.32682891838E-15,15.));
#773 = CARTESIAN_POINT('',(-24.,2.939152317954E-15,30.));
#774 = CARTESIAN_POINT('',(-29.,3.551475717527E-15,45.));
#775 = CARTESIAN_POINT('',(-14.03584467514,-3.677186182613,-4.));
#776 = CARTESIAN_POINT('',(-14.03584467514,-3.677186182613,0.));
#777 = CARTESIAN_POINT('',(-19.04864634483,-4.990466962118,15.));
#778 = CARTESIAN_POINT('',(-24.06144801452,-6.303747741622,30.));
#779 = CARTESIAN_POINT('',(-29.07424968422,-7.617028521127,45.));
#780 = CARTESIAN_POINT('',(-10.94247444434,-10.94247444434,-4.));
#781 = CARTESIAN_POINT('',(-10.94247444434,-10.94247444434,0.));
#782 = CARTESIAN_POINT('',(-14.85050103161,-14.85050103161,15.));
#783 = CARTESIAN_POINT('',(-18.75852761888,-18.75852761888,30.));
#784 = CARTESIAN_POINT('',(-22.66655420614,-22.66655420614,45.));
#785 = CARTESIAN_POINT('',(-3.677186182613,-14.03584467514,-4.));
#786 = CARTESIAN_POINT('',(-3.677186182613,-14.03584467514,0.));
#787 = CARTESIAN_POINT('',(-4.990466962118,-19.04864634483,15.));
#788 = CARTESIAN_POINT('',(-6.303747741622,-24.06144801452,30.));
#789 = CARTESIAN_POINT('',(-7.617028521127,-29.07424968422,45.));
#790 = CARTESIAN_POINT('',(-2.571758278209E-15,-14.,-4.));
#791 = CARTESIAN_POINT('',(-2.571758278209E-15,-14.,0.));
#792 = CARTESIAN_POINT('',(-3.49024337757E-15,-19.,15.));
#793 = CARTESIAN_POINT('',(-4.40872847693E-15,-24.,30.));
#794 = CARTESIAN_POINT('',(-5.327213576291E-15,-29.,45.));
#795 = DEFINITIONAL_REPRESENTATION('',(#796),#800);
#796 = LINE('',#797,#798);
#797 = CARTESIAN_POINT('',(0.,0.));
#798 = VECTOR('',#799,1.);
#799 = DIRECTION('',(0.,1.));
#800 = ( GEOMETRIC_REPRESENTATION_CONTEXT(2) 
PARAMETRIC_REPRESENTATION_CONTEXT() REPRESENTATION_CONTEXT('2D SPACE',''
  ) );
#801 = ORIENTED_EDGE('',*,*,#802,.F.);
#802 = EDGE_CURVE('',#514,#752,#803,.T.);
#803 = SURFACE_CURVE('',#804,(#810,#817),.PCURVE_S1.);
#804 = B_SPLINE_CURVE_WITH_KNOTS('',3,(#805,#806,#807,#808,#809),
  .UNSPECIFIED.,.F.,.F.,(4,1,4),(0.,0.5,1.),.QUASI_UNIFORM_KNOTS.);
#805 = CARTESIAN_POINT('',(1.775737858764E-15,29.,45.));
#806 = CARTESIAN_POINT('',(-7.617028521127,29.07424968422,45.));
#807 = CARTESIAN_POINT('',(-22.66655420614,22.666554206146,45.));
#808 = CARTESIAN_POINT('',(-29.07424968422,7.617028521127,45.));
#809 = CARTESIAN_POINT('',(-29.,3.551475717527E-15,45.));
#810 = PCURVE('',#686,#811);
#811 = DEFINITIONAL_REPRESENTATION('',(#812),#816);
#812 = LINE('',#813,#814);
#813 = CARTESIAN_POINT('',(0.,2.));
#814 = VECTOR('',#815,1.);
#815 = DIRECTION('',(1.,0.));
#816 = ( GEOMETRIC_REPRESENTATION_CONTEXT(2) 
PARAMETRIC_REPRESENTATION_CONTEXT() REPRESENTATION_CONTEXT('2D SPACE',''
  ) );
#817 = PCURVE('',#315,#818);
#818 = DEFINITIONAL_REPRESENTATION('',(#819),#823);
#819 = LINE('',#820,#821);
#820 = CARTESIAN_POINT('',(1.,1.));
#821 = VECTOR('',#822,1.);
#822 = DIRECTION('',(-1.,0.));
#823 = ( GEOMETRIC_REPRESENTATION_CONTEXT(2) 
PARAMETRIC_REPRESENTATION_CONTEXT() REPRESENTATION_CONTEXT('2D SPACE',''
  ) );
#824 = ADVANCED_FACE('',(#825),#769,.T.);
#825 = FACE_BOUND('',#826,.T.);
#826 = EDGE_LOOP('',(#827,#828,#855,#880));
#827 = ORIENTED_EDGE('',*,*,#751,.F.);
#828 = ORIENTED_EDGE('',*,*,#829,.T.);
#829 = EDGE_CURVE('',#725,#830,#832,.T.);
#830 = VERTEX_POINT('',#831);
#831 = CARTESIAN_POINT('',(-2.571758278209E-15,-14.,-4.));
#832 = SURFACE_CURVE('',#833,(#839,#846),.PCURVE_S1.);
#833 = B_SPLINE_CURVE_WITH_KNOTS('',3,(#834,#835,#836,#837,#838),
  .UNSPECIFIED.,.F.,.F.,(4,1,4),(0.,0.5,1.),.QUASI_UNIFORM_KNOTS.);
#834 = CARTESIAN_POINT('',(-14.,1.714505518806E-15,-4.));
#835 = CARTESIAN_POINT('',(-14.03584467514,-3.677186182613,-4.));
#836 = CARTESIAN_POINT('',(-10.94247444434,-10.94247444434,-4.));
#837 = CARTESIAN_POINT('',(-3.677186182613,-14.03584467514,-4.));
#838 = CARTESIAN_POINT('',(-2.571758278209E-15,-14.,-4.));
#839 = PCURVE('',#769,#840);
#840 = DEFINITIONAL_REPRESENTATION('',(#841),#845);
#841 = LINE('',#842,#843);
#842 = CARTESIAN_POINT('',(0.,0.));
#843 = VECTOR('',#844,1.);
#844 = DIRECTION('',(1.,0.));
#845 = ( GEOMETRIC_REPRESENTATION_CONTEXT(2) 
PARAMETRIC_REPRESENTATION_CONTEXT() REPRESENTATION_CONTEXT('2D SPACE',''
  ) );
#846 = PCURVE('',#656,#847);
#847 = DEFINITIONAL_REPRESENTATION('',(#848),#854);
#848 = B_SPLINE_CURVE_WITH_KNOTS('',3,(#849,#850,#851,#852,#853),
  .UNSPECIFIED.,.F.,.F.,(4,1,4),(0.,0.5,1.),.QUASI_UNIFORM_KNOTS.);
#849 = CARTESIAN_POINT('',(-14.,1.410749302823E-15));
#850 = CARTESIAN_POINT('',(-14.03584467514,-3.677186182613));
#851 = CARTESIAN_POINT('',(-10.94247444434,-10.94247444434));
#852 = CARTESIAN_POINT('',(-3.677186182613,-14.03584467514));
#853 = CARTESIAN_POINT('',(-1.923745017445E-15,-14.));
#854 = ( GEOMETRIC_REPRESENTATION_CONTEXT(2) 
PARAMETRIC_REPRESENTATION_CONTEXT() REPRESENTATION_CONTEXT('2D SPACE',''
  ) );
#855 = ORIENTED_EDGE('',*,*,#856,.T.);
#856 = EDGE_CURVE('',#830,#857,#859,.T.);
#857 = VERTEX_POINT('',#858);
#858 = CARTESIAN_POINT('',(-5.327213576291E-15,-29.,45.));
#859 = SURFACE_CURVE('',#860,(#866,#873),.PCURVE_S1.);
#860 = B_SPLINE_CURVE_WITH_KNOTS('',3,(#861,#862,#863,#864,#865),
  .UNSPECIFIED.,.F.,.F.,(4,1,4),(0.,1.,2.),.QUASI_UNIFORM_KNOTS.);
#861 = CARTESIAN_POINT('',(-2.571758278209E-15,-14.,-4.));
#862 = CARTESIAN_POINT('',(-2.571758278209E-15,-14.,0.));
#863 = CARTESIAN_POINT('',(-3.49024337757E-15,-19.,15.));
#864 = CARTESIAN_POINT('',(-4.40872847693E-15,-24.,30.));
#865 = CARTESIAN_POINT('',(-5.327213576291E-15,-29.,45.));
#866 = PCURVE('',#769,#867);
#867 = DEFINITIONAL_REPRESENTATION('',(#868),#872);
#868 = LINE('',#869,#870);
#869 = CARTESIAN_POINT('',(1.,0.));
#870 = VECTOR('',#871,1.);
#871 = DIRECTION('',(0.,1.));
#872 = ( GEOMETRIC_REPRESENTATION_CONTEXT(2) 
PARAMETRIC_REPRESENTATION_CONTEXT() REPRESENTATION_CONTEXT('2D SPACE',''
  ) );
#873 = PCURVE('',#605,#874);
#874 = DEFINITIONAL_REPRESENTATION('',(#875),#879);
#875 = LINE('',#876,#877);
#876 = CARTESIAN_POINT('',(0.,0.));
#877 = VECTOR('',#878,1.);
#878 = DIRECTION('',(0.,1.));
#879 = ( GEOMETRIC_REPRESENTATION_CONTEXT(2) 
PARAMETRIC_REPRESENTATION_CONTEXT() REPRESENTATION_CONTEXT('2D SPACE',''
  ) );
#880 = ORIENTED_EDGE('',*,*,#881,.F.);
#881 = EDGE_CURVE('',#752,#857,#882,.T.);
#882 = SURFACE_CURVE('',#883,(#889,#896),.PCURVE_S1.);
#883 = B_SPLINE_CURVE_WITH_KNOTS('',3,(#884,#885,#886,#887,#888),
  .UNSPECIFIED.,.F.,.F.,(4,1,4),(0.,0.5,1.),.QUASI_UNIFORM_KNOTS.);
#884 = CARTESIAN_POINT('',(-29.,3.551475717527E-15,45.));
#885 = CARTESIAN_POINT('',(-29.07424968422,-7.617028521127,45.));
#886 = CARTESIAN_POINT('',(-22.66655420614,-22.66655420614,45.));
#887 = CARTESIAN_POINT('',(-7.617028521127,-29.07424968422,45.));
#888 = CARTESIAN_POINT('',(-5.327213576291E-15,-29.,45.));
#889 = PCURVE('',#769,#890);
#890 = DEFINITIONAL_REPRESENTATION('',(#891),#895);
#891 = LINE('',#892,#893);
#892 = CARTESIAN_POINT('',(0.,2.));
#893 = VECTOR('',#894,1.);
#894 = DIRECTION('',(1.,0.));
#895 = ( GEOMETRIC_REPRESENTATION_CONTEXT(2) 
PARAMETRIC_REPRESENTATION_CONTEXT() REPRESENTATION_CONTEXT('2D SPACE',''
  ) );
#896 = PCURVE('',#405,#897);
#897 = DEFINITIONAL_REPRESENTATION('',(#898),#902);
#898 = LINE('',#899,#900);
#899 = CARTESIAN_POINT('',(1.,1.));
#900 = VECTOR('',#901,1.);
#901 = DIRECTION('',(-1.,0.));
#902 = ( GEOMETRIC_REPRESENTATION_CONTEXT(2) 
PARAMETRIC_REPRESENTATION_CONTEXT() REPRESENTATION_CONTEXT('2D SPACE',''
  ) );
#903 = ADVANCED_FACE('',(#904),#605,.T.);
#904 = FACE_BOUND('',#905,.T.);
#905 = EDGE_LOOP('',(#906,#907,#932,#933));
#906 = ORIENTED_EDGE('',*,*,#856,.F.);
#907 = ORIENTED_EDGE('',*,*,#908,.T.);
#908 = EDGE_CURVE('',#830,#588,#909,.T.);
#909 = SURFACE_CURVE('',#910,(#916,#923),.PCURVE_S1.);
#910 = B_SPLINE_CURVE_WITH_KNOTS('',3,(#911,#912,#913,#914,#915),
  .UNSPECIFIED.,.F.,.F.,(4,1,4),(0.,0.5,1.),.QUASI_UNIFORM_KNOTS.);
#911 = CARTESIAN_POINT('',(-2.571758278209E-15,-14.,-4.));
#912 = CARTESIAN_POINT('',(3.677186182613,-14.03584467514,-4.));
#913 = CARTESIAN_POINT('',(10.942474444347,-10.94247444434,-4.));
#914 = CARTESIAN_POINT('',(14.035844675141,-3.677186182613,-4.));
#915 = CARTESIAN_POINT('',(14.,0.,-4.));
#916 = PCURVE('',#605,#917);
#917 = DEFINITIONAL_REPRESENTATION('',(#918),#922);
#918 = LINE('',#919,#920);
#919 = CARTESIAN_POINT('',(0.,0.));
#920 = VECTOR('',#921,1.);
#921 = DIRECTION('',(1.,0.));
#922 = ( GEOMETRIC_REPRESENTATION_CONTEXT(2) 
PARAMETRIC_REPRESENTATION_CONTEXT() REPRESENTATION_CONTEXT('2D SPACE',''
  ) );
#923 = PCURVE('',#656,#924);
#924 = DEFINITIONAL_REPRESENTATION('',(#925),#931);
#925 = B_SPLINE_CURVE_WITH_KNOTS('',3,(#926,#927,#928,#929,#930),
  .UNSPECIFIED.,.F.,.F.,(4,1,4),(0.,0.5,1.),.QUASI_UNIFORM_KNOTS.);
#926 = CARTESIAN_POINT('',(-1.923745017445E-15,-14.));
#927 = CARTESIAN_POINT('',(3.677186182613,-14.03584467514));
#928 = CARTESIAN_POINT('',(10.942474444347,-10.94247444434));
#929 = CARTESIAN_POINT('',(14.035844675141,-3.677186182613));
#930 = CARTESIAN_POINT('',(14.,-3.037562159831E-16));
#931 = ( GEOMETRIC_REPRESENTATION_CONTEXT(2) 
PARAMETRIC_REPRESENTATION_CONTEXT() REPRESENTATION_CONTEXT('2D SPACE',''
  ) );
#932 = ORIENTED_EDGE('',*,*,#587,.T.);
#933 = ORIENTED_EDGE('',*,*,#934,.F.);
#934 = EDGE_CURVE('',#857,#492,#935,.T.);
#935 = SURFACE_CURVE('',#936,(#942,#949),.PCURVE_S1.);
#936 = B_SPLINE_CURVE_WITH_KNOTS('',3,(#937,#938,#939,#940,#941),
  .UNSPECIFIED.,.F.,.F.,(4,1,4),(0.,0.5,1.),.QUASI_UNIFORM_KNOTS.);
#937 = CARTESIAN_POINT('',(-5.327213576291E-15,-29.,45.));
#938 = CARTESIAN_POINT('',(7.617028521127,-29.07424968422,45.));
#939 = CARTESIAN_POINT('',(22.666554206146,-22.66655420614,45.));
#940 = CARTESIAN_POINT('',(29.07424968422,-7.617028521127,45.));
#941 = CARTESIAN_POINT('',(29.,0.,45.));
#942 = PCURVE('',#605,#943);
#943 = DEFINITIONAL_REPRESENTATION('',(#944),#948);
#944 = LINE('',#945,#946);
#945 = CARTESIAN_POINT('',(0.,2.));
#946 = VECTOR('',#947,1.);
#947 = DIRECTION('',(1.,0.));
#948 = ( GEOMETRIC_REPRESENTATION_CONTEXT(2) 
PARAMETRIC_REPRESENTATION_CONTEXT() REPRESENTATION_CONTEXT('2D SPACE',''
  ) );
#949 = PCURVE('',#469,#950);
#950 = DEFINITIONAL_REPRESENTATION('',(#951),#955);
#951 = LINE('',#952,#953);
#952 = CARTESIAN_POINT('',(1.,1.));
#953 = VECTOR('',#954,1.);
#954 = DIRECTION('',(-1.,0.));
#955 = ( GEOMETRIC_REPRESENTATION_CONTEXT(2) 
PARAMETRIC_REPRESENTATION_CONTEXT() REPRESENTATION_CONTEXT('2D SPACE',''
  ) );
#956 = ADVANCED_FACE('',(#957),#315,.T.);
#957 = FACE_BOUND('',#958,.T.);
#958 = EDGE_LOOP('',(#959,#960,#961,#962));
#959 = ORIENTED_EDGE('',*,*,#299,.F.);
#960 = ORIENTED_EDGE('',*,*,#564,.T.);
#961 = ORIENTED_EDGE('',*,*,#802,.T.);
#962 = ORIENTED_EDGE('',*,*,#963,.F.);
#963 = EDGE_CURVE('',#249,#752,#964,.T.);
#964 = SURFACE_CURVE('',#965,(#968,#975),.PCURVE_S1.);
#965 = B_SPLINE_CURVE_WITH_KNOTS('',1,(#966,#967),.UNSPECIFIED.,.F.,.F.,
  (2,2),(0.,1.),.PIECEWISE_BEZIER_KNOTS.);
#966 = CARTESIAN_POINT('',(-30.,3.673940397442E-15,60.));
#967 = CARTESIAN_POINT('',(-29.,3.551475717527E-15,45.));
#968 = PCURVE('',#315,#969);
#969 = DEFINITIONAL_REPRESENTATION('',(#970),#974);
#970 = LINE('',#971,#972);
#971 = CARTESIAN_POINT('',(0.,0.));
#972 = VECTOR('',#973,1.);
#973 = DIRECTION('',(0.,1.));
#974 = ( GEOMETRIC_REPRESENTATION_CONTEXT(2) 
PARAMETRIC_REPRESENTATION_CONTEXT() REPRESENTATION_CONTEXT('2D SPACE',''
  ) );
#975 = PCURVE('',#405,#976);
#976 = DEFINITIONAL_REPRESENTATION('',(#977),#981);
#977 = LINE('',#978,#979);
#978 = CARTESIAN_POINT('',(1.,0.));
#979 = VECTOR('',#980,1.);
#980 = DIRECTION('',(0.,1.));
#981 = ( GEOMETRIC_REPRESENTATION_CONTEXT(2) 
PARAMETRIC_REPRESENTATION_CONTEXT() REPRESENTATION_CONTEXT('2D SPACE',''
  ) );
#982 = ADVANCED_FACE('',(#983),#405,.T.);
#983 = FACE_BOUND('',#984,.T.);
#984 = EDGE_LOOP('',(#985,#986,#987,#988));
#985 = ORIENTED_EDGE('',*,*,#389,.F.);
#986 = ORIENTED_EDGE('',*,*,#963,.T.);
#987 = ORIENTED_EDGE('',*,*,#881,.T.);
#988 = ORIENTED_EDGE('',*,*,#989,.F.);
#989 = EDGE_CURVE('',#365,#857,#990,.T.);
#990 = SURFACE_CURVE('',#991,(#994,#1001),.PCURVE_S1.);
#991 = B_SPLINE_CURVE_WITH_KNOTS('',1,(#992,#993),.UNSPECIFIED.,.F.,.F.,
  (2,2),(0.,1.),.PIECEWISE_BEZIER_KNOTS.);
#992 = CARTESIAN_POINT('',(-5.510910596163E-15,-30.,60.));
#993 = CARTESIAN_POINT('',(-5.327213576291E-15,-29.,45.));
#994 = PCURVE('',#405,#995);
#995 = DEFINITIONAL_REPRESENTATION('',(#996),#1000);
#996 = LINE('',#997,#998);
#997 = CARTESIAN_POINT('',(0.,0.));
#998 = VECTOR('',#999,1.);
#999 = DIRECTION('',(0.,1.));
#1000 = ( GEOMETRIC_REPRESENTATION_CONTEXT(2) 
PARAMETRIC_REPRESENTATION_CONTEXT() REPRESENTATION_CONTEXT('2D SPACE',''
  ) );
#1001 = PCURVE('',#469,#1002);
#1002 = DEFINITIONAL_REPRESENTATION('',(#1003),#1007);
#1003 = LINE('',#1004,#1005);
#1004 = CARTESIAN_POINT('',(1.,0.));
#1005 = VECTOR('',#1006,1.);
#1006 = DIRECTION('',(0.,1.));
#1007 = ( GEOMETRIC_REPRESENTATION_CONTEXT(2) 
PARAMETRIC_REPRESENTATION_CONTEXT() REPRESENTATION_CONTEXT('2D SPACE',''
  ) );
#1008 = ADVANCED_FACE('',(#1009),#469,.T.);
#1009 = FACE_BOUND('',#1010,.T.);
#1010 = EDGE_LOOP('',(#1011,#1012,#1013,#1014));
#1011 = ORIENTED_EDGE('',*,*,#453,.F.);
#1012 = ORIENTED_EDGE('',*,*,#989,.T.);
#1013 = ORIENTED_EDGE('',*,*,#934,.T.);
#1014 = ORIENTED_EDGE('',*,*,#491,.F.);
#1015 = ADVANCED_FACE('',(#1016),#656,.F.);
#1016 = FACE_BOUND('',#1017,.F.);
#1017 = EDGE_LOOP('',(#1018,#1019,#1020,#1021));
#1018 = ORIENTED_EDGE('',*,*,#638,.T.);
#1019 = ORIENTED_EDGE('',*,*,#724,.T.);
#1020 = ORIENTED_EDGE('',*,*,#829,.T.);
#1021 = ORIENTED_EDGE('',*,*,#908,.T.);
#1022 = ADVANCED_FACE('',(#1023),#118,.T.);
#1023 = FACE_BOUND('',#1024,.T.);
#1024 = EDGE_LOOP('',(#1025,#1026,#1027,#1028));
#1025 = ORIENTED_EDGE('',*,*,#100,.T.);
#1026 = ORIENTED_EDGE('',*,*,#221,.T.);
#1027 = ORIENTED_EDGE('',*,*,#337,.T.);
#1028 = ORIENTED_EDGE('',*,*,#427,.T.);
#1029 = ( GEOMETRIC_REPRESENTATION_CONTEXT(3) 
GLOBAL_UNCERTAINTY_ASSIGNED_CONTEXT((#1033)) 
GLOBAL_UNIT_ASSIGNED_CONTEXT((#1030,#1031,#1032)) REPRESENTATION_CONTEXT
('Context #1','3D Context with UNIT and UNCERTAINTY') );
#1030 = ( LENGTH_UNIT() NAMED_UNIT(*) SI_UNIT(.MILLI.,.METRE.) );
#1031 = ( NAMED_UNIT(*) PLANE_ANGLE_UNIT() SI_UNIT($,.RADIAN.) );
#1032 = ( NAMED_UNIT(*) SI_UNIT($,.STERADIAN.) SOLID_ANGLE_UNIT() );
#1033 = UNCERTAINTY_MEASURE_WITH_UNIT(LENGTH_MEASURE(1.E-07),#1030,
  'distance_accuracy_value','confusion accuracy');
#1034 = PRODUCT_RELATED_PRODUCT_CATEGORY('part',$,(#7));
ENDSEC;
END-ISO-10303-21;
