$MeshFormat
2.2 0 8
$EndMeshFormat
$PhysicalNames
2
2 1 "SD1G0"
2 2 "SD1D1001"
$EndPhysicalNames
$Nodes
207
1 1.0000000000000000e-02 0.0000000000000000e+00 0.0000000000000000e+00
2 6.1232339957367660e-19 1.0000000000000000e-02 0.0000000000000000e+00
3 6.5762193554627521e-02 0.0000000000000000e+00 5.9999999999999998e-02
4 4.0267729920791641e-18 6.5762193554627521e-02 5.9999999999999998e-02
5 -1.0000000000000000e-02 1.2246467991473530e-18 0.0000000000000000e+00
6 -6.5762193554627521e-02 8.0535459841583297e-18 5.9999999999999998e-02
7 -1.8369701987210300e-18 -1.0000000000000000e-02 0.0000000000000000e+00
8 -1.2080318976237490e-17 -6.5762193554627521e-02 5.9999999999999998e-02
9 1.2000000000000000e-02 -7.1347315892039841e-19 -2.0000000000000000e-03
10 6.1232339957367660e-19 1.2000000000000000e-02 -2.0000000000000000e-03
11 6.1474873912794742e-02 0.0000000000000000e+00 5.7370087709368599e-02
12 3.7443772969273290e-18 6.1474873912794742e-02 5.7370087709368599e-02
13 -1.2000000000000000e-02 1.9381199580677519e-18 -2.0000000000000000e-03
14 -6.1474873912794742e-02 7.4887545938546581e-18 5.7370087709368599e-02
15 -2.5504433576414279e-18 -1.2000000000000000e-02 -2.0000000000000000e-03
16 -1.1233131890781991e-17 -6.1474873912794742e-02 5.7370087709368599e-02
17 1.3786059147683950e-02 0.0000000000000000e+00 1.1823653285037039e-02
18 2.0387630074338033e-02 0.0000000000000000e+00 2.5067523965900611e-02
19 3.0099425311291162e-02 0.0000000000000000e+00 3.9526888665840268e-02
20 4.4901619760794771e-02 0.0000000000000000e+00 5.3049361318126931e-02
21 7.0420489523560243e-03 7.0420489523560104e-03 0.0000000000000000e+00
22 8.4415266040336177e-19 1.3786059147683950e-02 1.1823653285037039e-02
23 1.2483822956369190e-18 2.0387630074338033e-02 2.5067523965900611e-02
24 1.8430582431823781e-18 3.0099425311291162e-02 3.9526888665840268e-02
25 2.7494312458294429e-18 4.4901619760794771e-02 5.3049361318126931e-02
26 6.2231998299617591e-02 2.0218180515393890e-02 5.9999999999999998e-02
27 5.2984198215771619e-02 3.8495685455500868e-02 5.9999999999999998e-02
28 3.8495685455500986e-02 5.2984198215771529e-02 5.9999999999999998e-02
29 2.0218180515394070e-02 6.2231998299617522e-02 5.9999999999999998e-02
30 -7.0420489523560113e-03 7.0420489523560234e-03 0.0000000000000000e+00
31 -1.3786059147683950e-02 1.6883053208067239e-18 1.1823653285037039e-02
32 -2.0387630074338033e-02 2.4967645912738380e-18 2.5067523965900611e-02
33 -3.0099425311291162e-02 3.6861164863647554e-18 3.9526888665840268e-02
34 -4.4901619760794771e-02 5.4988624916588859e-18 5.3049361318126931e-02
35 -2.0218180515393890e-02 6.2231998299617591e-02 5.9999999999999998e-02
36 -3.8495685455500868e-02 5.2984198215771612e-02 5.9999999999999998e-02
37 -5.2984198215771543e-02 3.8495685455500986e-02 5.9999999999999998e-02
38 -6.2231998299617522e-02 2.0218180515394060e-02 5.9999999999999998e-02
39 -7.0420489523560243e-03 -7.0420489523560113e-03 0.0000000000000000e+00
40 -2.5324579812100850e-18 -1.3786059147683950e-02 1.1823653285037039e-02
41 -3.7451468869107568e-18 -2.0387630074338033e-02 2.5067523965900611e-02
42 -5.5291747295471311e-18 -3.0099425311291162e-02 3.9526888665840268e-02
43 -8.2482937374883277e-18 -4.4901619760794771e-02 5.3049361318126931e-02
44 -6.2231998299617591e-02 -2.0218180515393879e-02 5.9999999999999998e-02
45 -5.2984198215771619e-02 -3.8495685455500861e-02 5.9999999999999998e-02
46 -3.8495685455500993e-02 -5.2984198215771522e-02 5.9999999999999998e-02
47 -2.0218180515394070e-02 -6.2231998299617522e-02 5.9999999999999998e-02
48 7.0420489523560122e-03 -7.0420489523560234e-03 0.0000000000000000e+00
49 2.0218180515393879e-02 -6.2231998299617591e-02 5.9999999999999998e-02
50 3.8495685455500847e-02 -5.2984198215771619e-02 5.9999999999999998e-02
51 5.2984198215771522e-02 -3.8495685455501000e-02 5.9999999999999998e-02
52 6.2231998299617522e-02 -2.0218180515394087e-02 5.9999999999999998e-02
53 1.5608761674619940e-02 -1.0240118504190841e-18 1.1001431193290201e-02
54 2.1617339751354693e-02 -8.5217946794943208e-19 2.3179857292125770e-02
55 2.8886907786906932e-02 -4.2133175132079542e-19 3.4649016560032185e-02
56 3.7737265561716818e-02 -8.2589984907374395e-19 4.4932883955212555e-02
57 4.8681849601974594e-02 -3.1085280101278265e-19 5.2906531088669537e-02
58 8.4504587428272278e-03 8.4504587428272174e-03 -2.0000000000000000e-03
59 8.4270973506982005e-19 1.5608761674619940e-02 1.1001431193290201e-02
60 1.2168331405924831e-18 2.1617339751354693e-02 2.3179857292125770e-02
61 1.6702919233002530e-18 2.8886907786906932e-02 3.4649016560032185e-02
62 2.2279089233132473e-18 3.7737265561716818e-02 4.4932883955212555e-02
63 2.9266098864925131e-18 4.8681849601974594e-02 5.2906531088669537e-02
64 5.9623458352148148e-02 1.3601282345901720e-02 5.7370087709368599e-02
65 5.5158891556847174e-02 2.6563862221189831e-02 5.7370087709368599e-02
66 4.7865557694659062e-02 3.8171791972025838e-02 5.7370087709368599e-02
67 3.8171791972025991e-02 4.7865557694658951e-02 5.7370087709368592e-02
68 2.6563862221189991e-02 5.5158891556847091e-02 5.7370087709368592e-02
69 1.3601282345901749e-02 5.9623458352148148e-02 5.7370087709368599e-02
70 -8.4504587428272139e-03 8.4504587428272278e-03 -2.0000000000000000e-03
71 -1.5608761674619940e-02 2.7094313205587259e-18 1.1001431193290201e-02
72 -2.1617339751354693e-02 3.2858457491343980e-18 2.3179857292125770e-02
73 -2.8886907786906932e-02 3.7619155979213012e-18 3.4649016560032185e-02
74 -3.7737265561716818e-02 5.2817176957002375e-18 4.4932883955212555e-02
75 -4.8681849601974594e-02 6.1640725739978081e-18 5.2906531088669537e-02
76 -1.3601282345901720e-02 5.9623458352148162e-02 5.7370087709368599e-02
77 -2.6563862221189831e-02 5.5158891556847174e-02 5.7370087709368592e-02
78 -3.8171791972025838e-02 4.7865557694659062e-02 5.7370087709368599e-02
79 -4.7865557694658951e-02 3.8171791972025991e-02 5.7370087709368592e-02
80 -5.5158891556847084e-02 2.6563862221190001e-02 5.7370087709368592e-02
81 -5.9623458352148148e-02 1.3601282345901749e-02 5.7370087709368599e-02
82 -8.4504587428272278e-03 -8.4504587428272139e-03 -2.0000000000000000e-03
83 -3.5521410556285457e-18 -1.5608761674619940e-02 1.1001431193290201e-02
84 -4.5026788897268822e-18 -2.1617339751354693e-02 2.3179857292125770e-02
85 -5.4322075212215529e-18 -2.8886907786906932e-02 3.4649016560032185e-02
86 -7.5096266190134856e-18 -3.7737265561716818e-02 4.4932883955212555e-02
87 -9.0906824604903212e-18 -4.8681849601974594e-02 5.2906531088669537e-02
88 -5.9623458352148162e-02 -1.3601282345901711e-02 5.7370087709368599e-02
89 -5.5158891556847174e-02 -2.6563862221189831e-02 5.7370087709368592e-02
90 -4.7865557694659062e-02 -3.8171791972025838e-02 5.7370087709368599e-02
91 -3.8171791972025998e-02 -4.7865557694658951e-02 5.7370087709368592e-02
92 -2.6563862221190001e-02 -5.5158891556847084e-02 5.7370087709368592e-02
93 -1.3601282345901749e-02 -5.9623458352148148e-02 5.7370087709368599e-02
94 8.4504587428272139e-03 -8.4504587428272260e-03 -2.0000000000000000e-03
95 1.3601282345901711e-02 -5.9623458352148162e-02 5.7370087709368599e-02
96 2.6563862221189841e-02 -5.5158891556847174e-02 5.7370087709368599e-02
97 3.8171791972025838e-02 -4.7865557694659062e-02 5.7370087709368599e-02
98 4.7865557694658958e-02 -3.8171791972025991e-02 5.7370087709368592e-02
99 5.5158891556847091e-02 -2.6563862221190001e-02 5.7370087709368592e-02
100 5.9623458352148141e-02 -1.3601282345901741e-02 5.7370087709368599e-02
101 6.3606658826805829e-02 0.0000000000000000e+00 5.8677759591734643e-02
102 3.8847929722206714e-18 6.3606658826805829e-02 5.8677759591734643e-02
103 -6.3606658826805829e-02 7.7695859444413428e-18 5.8677759591734643e-02
104 -1.1654378916662010e-17 -6.3606658826805829e-02 5.8677759591734643e-02
105 1.5790944777133081e-02 1.7644251453137562e-02 3.0684056404817171e-02
106 1.2457263891221820e-02 1.1700868056436350e-02 1.9062138837371501e-02
107 3.5579710580840737e-02 3.5658703170649730e-02 5.6043235167109476e-02
108 1.8362633713310199e-02 4.0050206921583800e-02 5.2632717082330159e-02
109 2.4615174576544861e-02 2.5275506365615829e-02 4.5466782230063202e-02
110 1.4734222051566541e-02 5.2979516947824476e-02 5.7775370584061632e-02
111 8.4803214458608056e-03 8.3288593183422268e-03 7.0665628839925946e-03
112 4.2477121369472626e-02 1.9581636459493460e-02 5.4259146962588850e-02
113 -1.2457263891221820e-02 1.1700868056436360e-02 1.9062138837371487e-02
114 -1.5790944777133081e-02 1.7644251453137572e-02 3.0684056404817191e-02
115 -2.4615174576544850e-02 2.5275506365615839e-02 4.5466782230063202e-02
116 -1.8362633713310161e-02 4.0050206921583800e-02 5.2632717082330152e-02
117 -3.5579710580840709e-02 3.5658703170649772e-02 5.6043235167109504e-02
118 -1.4734222051566480e-02 5.2979516947824511e-02 5.7775370584061632e-02
119 -8.4803214458608056e-03 8.3288593183422268e-03 7.0665628839925963e-03
120 -4.2477121369472626e-02 1.9581636459493509e-02 5.4259146962588871e-02
121 -1.5790944777133092e-02 -1.7644251453137562e-02 3.0684056404817191e-02
122 -1.2457263891221830e-02 -1.1700868056436360e-02 1.9062138837371512e-02
123 -3.5579710580840744e-02 -3.5658703170649723e-02 5.6043235167109497e-02
124 -1.8362633713310199e-02 -4.0050206921583800e-02 5.2632717082330159e-02
125 -2.4615174576544871e-02 -2.5275506365615839e-02 4.5466782230063209e-02
126 -1.4734222051566550e-02 -5.2979516947824483e-02 5.7775370584061639e-02
127 -8.4803214458608073e-03 -8.3288593183422251e-03 7.0665628839925963e-03
128 -4.2477121369472626e-02 -1.9581636459493450e-02 5.4259146962588850e-02
129 1.7644251453137562e-02 -1.5790944777133092e-02 3.0684056404817191e-02
130 1.1700868056436350e-02 -1.2457263891221820e-02 1.9062138837371487e-02
131 3.5658703170649723e-02 -3.5579710580840744e-02 5.6043235167109497e-02
132 4.0050206921583793e-02 -1.8362633713310199e-02 5.2632717082330152e-02
133 2.5275506365615829e-02 -2.4615174576544861e-02 4.5466782230063202e-02
134 5.2979516947824476e-02 -1.4734222051566550e-02 5.7775370584061632e-02
135 8.3288593183422268e-03 -8.4803214458608056e-03 7.0665628839925946e-03
136 1.9581636459493450e-02 -4.2477121369472626e-02 5.4259146962588857e-02
137 9.8230626048101243e-03 9.9987956966022997e-03 7.1131216302140355e-03
138 1.6541001543489368e-02 1.0205482468401540e-02 1.9276072837969369e-02
139 2.6782258236994542e-02 1.4347961600869591e-02 3.6821152103366284e-02
140 3.5137001696664526e-02 1.4039933624744110e-02 4.5188761155320244e-02
141 2.5940116778699458e-02 2.7195484871260452e-02 4.4933504866146612e-02
142 2.1581776997064841e-02 3.9950488859397414e-02 5.1131211413177509e-02
143 1.3482793674122700e-02 3.3747897059660352e-02 4.3722564737004276e-02
144 9.4211423777147123e-03 5.3751453500416504e-02 5.5531281851152740e-02
145 3.3433440512291315e-02 3.8818141340031184e-02 5.4211366787549231e-02
146 4.0574999178623609e-02 2.5806929686623060e-02 5.2698643520375267e-02
147 4.8595320702083812e-02 1.2241239763386400e-02 5.3731481039807683e-02
148 1.1954999620610550e-02 4.4807117403281353e-02 5.1756708093616217e-02
149 1.4879052263423420e-02 2.0522758510608138e-02 2.9597940432120433e-02
150 9.0248135119428557e-03 1.6645862474463820e-02 1.8293964366970290e-02
151 2.3044326514886242e-02 1.0197375368885930e-02 2.9366965234420700e-02
152 -1.2888476228635190e-02 3.5073602469792964e-02 4.4746912002724001e-02
153 -1.0368439417272560e-02 4.7278380176165445e-02 5.2893671195568967e-02
154 -2.5784889872031730e-02 4.0668085774184619e-02 5.2734157701418295e-02
155 -3.9978294569962200e-02 2.1687719072057209e-02 5.1178782156455313e-02
156 -4.4812463070932909e-02 1.1976247308747461e-02 5.1763060283922024e-02
157 -3.4483456749890846e-02 1.2834163117251930e-02 4.4184727693200254e-02
158 -2.4777191393449371e-02 1.3024696013504511e-02 3.3556646498423201e-02
159 -1.5333394110141280e-02 1.7605659571761263e-02 2.6341208763952888e-02
160 -1.5058382230652671e-02 2.4569150385403402e-02 3.4715959262386811e-02
161 -2.7245650364069889e-02 2.6503048633467061e-02 4.5338041669208115e-02
162 -5.3751453500416470e-02 9.4211423777147436e-03 5.5531281851152740e-02
163 -3.8836414212832050e-02 3.3567604037558464e-02 5.4255501516591385e-02
164 -9.3477031999740987e-03 9.4739322276026477e-03 5.0488407242464638e-03
165 -8.2830007055234352e-03 2.3660165950608183e-02 2.9184044430590510e-02
166 -1.2474458255448630e-02 1.3055545287945509e-02 1.6523145074771629e-02
167 -3.5073602469792957e-02 -1.2888476228635190e-02 4.4746912002724001e-02
168 -4.7278380176165417e-02 -1.0368439417272550e-02 5.2893671195568946e-02
169 -4.0668085774184619e-02 -2.5784889872031740e-02 5.2734157701418295e-02
170 -2.1687719072057198e-02 -3.9978294569962186e-02 5.1178782156455313e-02
171 -1.1976247308747461e-02 -4.4812463070932895e-02 5.1763060283922024e-02
172 -1.2834163117251930e-02 -3.4483456749890846e-02 4.4184727693200254e-02
173 -9.4211423777147349e-03 -5.3751453500416491e-02 5.5531281851152726e-02
174 -1.3024696013504511e-02 -2.4777191393449371e-02 3.3556646498423201e-02
175 -1.7605659571761252e-02 -1.5333394110141271e-02 2.6341208763952881e-02
176 -2.4569150385403391e-02 -1.5058382230652661e-02 3.4715959262386790e-02
177 -2.6503048633467061e-02 -2.7245650364069882e-02 4.5338041669208108e-02
178 -3.3567604037558485e-02 -3.8836414212832064e-02 5.4255501516591385e-02
179 -9.4739322276026477e-03 -9.3477031999740987e-03 5.0488407242464638e-03
180 -2.3660165950608172e-02 -8.2830007055234335e-03 2.9184044430590510e-02
181 -1.3055545287945520e-02 -1.2474458255448630e-02 1.6523145074771640e-02
182 1.5064643070166540e-02 -1.5735879738333652e-02 2.3636930269940098e-02
183 1.0472748177541289e-02 -9.5648147610397933e-03 7.5682407974184112e-03
184 1.6088008858732870e-02 -8.4192709441330057e-03 1.6729827760360992e-02
185 5.3751453500416504e-02 -9.4211423777147228e-03 5.5531281851152740e-02
186 1.2888476228635190e-02 -3.5073602469792964e-02 4.4746912002724001e-02
187 1.0368439417272550e-02 -4.7278380176165431e-02 5.2893671195568967e-02
188 2.5866757794265970e-02 -4.0634188323348981e-02 5.2742266090585931e-02
189 4.0041388356372692e-02 -2.1607610533099952e-02 5.1189784536076283e-02
190 4.4819460075730858e-02 -1.1959103660634620e-02 5.1764474179307261e-02
191 3.3539574335404471e-02 -1.3127733171126661e-02 4.3393664017194147e-02
192 2.3440700180865238e-02 -1.8848693611004171e-02 3.6421954935665801e-02
193 2.7650732405378041e-02 -2.6224743735255983e-02 4.5431103074917711e-02
194 3.8931802477754740e-02 -3.3494520532549421e-02 5.4266123082041977e-02
195 2.4200621308538700e-02 -1.0456891957536992e-02 3.1167385820383139e-02
196 1.5307599789843722e-02 -2.5701304030454342e-02 3.6204520102916055e-02
197 7.8792351453649597e-03 -2.3756903248367208e-02 2.9127490612899119e-02
198 7.1635188299121483e-03 6.2961951203438185e-02 5.8729269955177472e-02
199 6.2961951203438185e-02 7.1635188299121050e-03 5.8729269955177472e-02
200 -7.1635188299120616e-03 6.2961951203438199e-02 5.8729269955177472e-02
201 -6.2961951203438185e-02 7.1635188299121536e-03 5.8729269955177472e-02
202 -6.2961951203438199e-02 -7.1635188299120590e-03 5.8729269955177472e-02
203 -7.1635188299121570e-03 -6.2961951203438185e-02 5.8729269955177472e-02
204 7.1635188299120954e-03 -6.2961951203438185e-02 5.8729269955177472e-02
205 6.2961951203438185e-02 -7.1635188299121553e-03 5.8729269955177472e-02
206 9.4645323278287812e-20 3.7188036609755251e-19 -2.0000000000000000e-03
207 7.7683546043985192e-19 4.1613486984966400e-19 0.0000000000000000e+00
$EndNodes
$Elements
410
1 2 2 1 1 18 105 106
2 2 2 1 1 17 18 106
3 2 2 1 1 107 108 109
4 2 2 1 1 108 24 109
5 2 2 1 1 4 110 29
6 2 2 1 1 4 25 110
7 2 2 1 1 1 111 21
8 2 2 1 1 1 17 111
9 2 2 1 1 2 111 22
10 2 2 1 1 2 21 111
11 2 2 1 1 106 105 23
12 2 2 1 1 105 18 19
13 2 2 1 1 112 26 27
14 2 2 1 1 27 107 112
15 2 2 1 1 3 26 20
16 2 2 1 1 20 26 112
17 2 2 1 1 107 109 112
18 2 2 1 1 109 19 112
19 2 2 1 1 112 19 20
20 2 2 1 1 17 106 111
21 2 2 1 1 27 28 107
22 2 2 1 1 111 106 22
23 2 2 1 1 106 23 22
24 2 2 1 1 19 109 105
25 2 2 1 1 25 108 110
26 2 2 1 1 28 29 110
27 2 2 1 1 110 108 28
28 2 2 1 1 108 25 24
29 2 2 1 1 108 107 28
30 2 2 1 1 24 23 105
31 2 2 1 1 105 109 24
32 2 2 1 1 113 114 32
33 2 2 1 1 113 32 31
34 2 2 1 1 34 38 6
35 2 2 1 1 115 116 117
36 2 2 1 1 115 24 116
37 2 2 1 1 35 118 4
38 2 2 1 1 118 25 4
39 2 2 1 1 2 119 30
40 2 2 1 1 2 22 119
41 2 2 1 1 5 119 31
42 2 2 1 1 5 30 119
43 2 2 1 1 33 32 114
44 2 2 1 1 23 114 113
45 2 2 1 1 37 38 120
46 2 2 1 1 120 117 37
47 2 2 1 1 120 38 34
48 2 2 1 1 120 115 117
49 2 2 1 1 120 33 115
50 2 2 1 1 34 33 120
51 2 2 1 1 22 113 119
52 2 2 1 1 117 36 37
53 2 2 1 1 119 113 31
54 2 2 1 1 113 22 23
55 2 2 1 1 24 115 114
56 2 2 1 1 36 116 118
57 2 2 1 1 114 115 33
58 2 2 1 1 114 23 24
59 2 2 1 1 24 25 116
60 2 2 1 1 36 117 116
61 2 2 1 1 118 116 25
62 2 2 1 1 118 35 36
63 2 2 1 1 32 121 122
64 2 2 1 1 31 32 122
65 2 2 1 1 123 124 125
66 2 2 1 1 124 42 125
67 2 2 1 1 8 126 47
68 2 2 1 1 8 43 126
69 2 2 1 1 5 127 39
70 2 2 1 1 5 31 127
71 2 2 1 1 6 44 34
72 2 2 1 1 7 127 40
73 2 2 1 1 7 39 127
74 2 2 1 1 122 121 41
75 2 2 1 1 121 32 33
76 2 2 1 1 128 44 45
77 2 2 1 1 45 123 128
78 2 2 1 1 34 44 128
79 2 2 1 1 123 125 128
80 2 2 1 1 125 33 128
81 2 2 1 1 128 33 34
82 2 2 1 1 31 122 127
83 2 2 1 1 45 46 123
84 2 2 1 1 127 122 40
85 2 2 1 1 122 41 40
86 2 2 1 1 33 125 121
87 2 2 1 1 43 124 126
88 2 2 1 1 46 47 126
89 2 2 1 1 126 124 46
90 2 2 1 1 124 43 42
91 2 2 1 1 124 123 46
92 2 2 1 1 42 41 121
93 2 2 1 1 121 125 42
94 2 2 1 1 41 129 130
95 2 2 1 1 40 41 130
96 2 2 1 1 131 132 133
97 2 2 1 1 132 19 133
98 2 2 1 1 3 134 52
99 2 2 1 1 3 20 134
100 2 2 1 1 49 43 8
101 2 2 1 1 1 135 17
102 2 2 1 1 1 48 135
103 2 2 1 1 7 135 48
104 2 2 1 1 7 40 135
105 2 2 1 1 130 129 18
106 2 2 1 1 129 41 42
107 2 2 1 1 136 49 50
108 2 2 1 1 50 131 136
109 2 2 1 1 43 49 136
110 2 2 1 1 131 133 136
111 2 2 1 1 133 42 136
112 2 2 1 1 136 42 43
113 2 2 1 1 40 130 135
114 2 2 1 1 50 51 131
115 2 2 1 1 135 130 17
116 2 2 1 1 130 18 17
117 2 2 1 1 42 133 129
118 2 2 1 1 20 132 134
119 2 2 1 1 51 52 134
120 2 2 1 1 134 132 51
121 2 2 1 1 132 20 19
122 2 2 1 1 132 131 51
123 2 2 1 1 19 18 129
124 2 2 1 1 129 133 19
125 2 2 1 1 137 138 53
126 2 2 1 1 138 54 53
127 2 2 1 1 139 141 140
128 2 2 1 1 141 143 142
129 2 2 1 1 12 69 144
130 2 2 1 1 12 144 63
131 2 2 1 1 145 141 142
132 2 2 1 1 141 145 146
133 2 2 1 1 140 141 146
134 2 2 1 1 140 146 147
135 2 2 1 1 147 146 65
136 2 2 1 1 146 66 65
137 2 2 1 1 142 143 148
138 2 2 1 1 143 62 148
139 2 2 1 1 147 56 140
140 2 2 1 1 10 59 137
141 2 2 1 1 58 10 137
142 2 2 1 1 145 142 68
143 2 2 1 1 67 145 68
144 2 2 1 1 149 141 139
145 2 2 1 1 141 149 143
146 2 2 1 1 61 149 60
147 2 2 1 1 149 61 143
148 2 2 1 1 137 150 138
149 2 2 1 1 139 151 149
150 2 2 1 1 146 145 66
151 2 2 1 1 145 67 66
152 2 2 1 1 58 137 9
153 2 2 1 1 137 53 9
154 2 2 1 1 64 11 147
155 2 2 1 1 147 65 64
156 2 2 1 1 147 11 57
157 2 2 1 1 147 57 56
158 2 2 1 1 55 139 140
159 2 2 1 1 150 149 138
160 2 2 1 1 55 151 139
161 2 2 1 1 54 151 55
162 2 2 1 1 140 56 55
163 2 2 1 1 63 144 148
164 2 2 1 1 68 144 69
165 2 2 1 1 144 68 148
166 2 2 1 1 62 143 61
167 2 2 1 1 138 149 151
168 2 2 1 1 148 68 142
169 2 2 1 1 148 62 63
170 2 2 1 1 150 59 60
171 2 2 1 1 54 138 151
172 2 2 1 1 149 150 60
173 2 2 1 1 59 150 137
174 2 2 1 1 152 154 153
175 2 2 1 1 153 154 77
176 2 2 1 1 154 78 77
177 2 2 1 1 155 157 156
178 2 2 1 1 158 160 159
179 2 2 1 1 161 157 155
180 2 2 1 1 14 81 162
181 2 2 1 1 14 162 75
182 2 2 1 1 157 74 156
183 2 2 1 1 153 62 152
184 2 2 1 1 163 155 80
185 2 2 1 1 79 163 80
186 2 2 1 1 157 161 158
187 2 2 1 1 161 160 158
188 2 2 1 1 10 70 164
189 2 2 1 1 59 10 164
190 2 2 1 1 164 70 13
191 2 2 1 1 71 164 13
192 2 2 1 1 154 163 78
193 2 2 1 1 163 79 78
194 2 2 1 1 76 12 153
195 2 2 1 1 153 77 76
196 2 2 1 1 153 12 63
197 2 2 1 1 165 159 160
198 2 2 1 1 159 165 60
199 2 2 1 1 61 165 160
200 2 2 1 1 165 61 60
201 2 2 1 1 153 63 62
202 2 2 1 1 59 164 166
203 2 2 1 1 160 161 152
204 2 2 1 1 61 160 152
205 2 2 1 1 72 158 159
206 2 2 1 1 158 72 73
207 2 2 1 1 60 59 166
208 2 2 1 1 158 73 157
209 2 2 1 1 152 161 154
210 2 2 1 1 152 62 61
211 2 2 1 1 75 162 156
212 2 2 1 1 80 162 81
213 2 2 1 1 162 80 156
214 2 2 1 1 161 163 154
215 2 2 1 1 74 157 73
216 2 2 1 1 164 71 166
217 2 2 1 1 156 74 75
218 2 2 1 1 60 166 159
219 2 2 1 1 72 166 71
220 2 2 1 1 166 72 159
221 2 2 1 1 163 161 155
222 2 2 1 1 156 80 155
223 2 2 1 1 167 169 168
224 2 2 1 1 168 169 89
225 2 2 1 1 169 90 89
226 2 2 1 1 170 172 171
227 2 2 1 1 16 93 173
228 2 2 1 1 16 173 87
229 2 2 1 1 174 176 175
230 2 2 1 1 177 172 170
231 2 2 1 1 172 86 171
232 2 2 1 1 168 74 167
233 2 2 1 1 178 170 92
234 2 2 1 1 91 178 92
235 2 2 1 1 172 177 174
236 2 2 1 1 177 176 174
237 2 2 1 1 13 82 179
238 2 2 1 1 71 13 179
239 2 2 1 1 179 82 15
240 2 2 1 1 83 179 15
241 2 2 1 1 169 178 90
242 2 2 1 1 178 91 90
243 2 2 1 1 88 14 168
244 2 2 1 1 168 89 88
245 2 2 1 1 168 14 75
246 2 2 1 1 180 175 176
247 2 2 1 1 175 180 72
248 2 2 1 1 73 180 176
249 2 2 1 1 180 73 72
250 2 2 1 1 168 75 74
251 2 2 1 1 71 179 181
252 2 2 1 1 176 177 167
253 2 2 1 1 73 176 167
254 2 2 1 1 84 174 175
255 2 2 1 1 174 84 85
256 2 2 1 1 72 71 181
257 2 2 1 1 174 85 172
258 2 2 1 1 167 177 169
259 2 2 1 1 167 74 73
260 2 2 1 1 87 173 171
261 2 2 1 1 92 173 93
262 2 2 1 1 173 92 171
263 2 2 1 1 177 178 169
264 2 2 1 1 86 172 85
265 2 2 1 1 179 83 181
266 2 2 1 1 171 86 87
267 2 2 1 1 72 181 175
268 2 2 1 1 84 181 83
269 2 2 1 1 181 84 175
270 2 2 1 1 178 177 170
271 2 2 1 1 171 92 170
272 2 2 1 1 83 183 182
273 2 2 1 1 83 182 84
274 2 2 1 1 53 184 183
275 2 2 1 1 182 184 54
276 2 2 1 1 11 100 185
277 2 2 1 1 11 185 57
278 2 2 1 1 186 188 187
279 2 2 1 1 187 188 96
280 2 2 1 1 188 97 96
281 2 2 1 1 189 191 190
282 2 2 1 1 191 193 192
283 2 2 1 1 193 191 189
284 2 2 1 1 191 56 190
285 2 2 1 1 187 86 186
286 2 2 1 1 15 94 183
287 2 2 1 1 83 15 183
288 2 2 1 1 194 189 99
289 2 2 1 1 98 194 99
290 2 2 1 1 192 195 191
291 2 2 1 1 193 196 192
292 2 2 1 1 188 194 97
293 2 2 1 1 194 98 97
294 2 2 1 1 183 94 9
295 2 2 1 1 53 183 9
296 2 2 1 1 182 197 84
297 2 2 1 1 95 16 187
298 2 2 1 1 197 85 84
299 2 2 1 1 187 96 95
300 2 2 1 1 187 16 87
301 2 2 1 1 197 182 196
302 2 2 1 1 192 196 182
303 2 2 1 1 85 197 196
304 2 2 1 1 187 87 86
305 2 2 1 1 196 193 186
306 2 2 1 1 85 196 186
307 2 2 1 1 195 192 182
308 2 2 1 1 54 195 182
309 2 2 1 1 195 54 55
310 2 2 1 1 195 55 191
311 2 2 1 1 186 193 188
312 2 2 1 1 186 86 85
313 2 2 1 1 57 185 190
314 2 2 1 1 99 185 100
315 2 2 1 1 185 99 190
316 2 2 1 1 56 191 55
317 2 2 1 1 194 193 189
318 2 2 1 1 190 99 189
319 2 2 1 1 190 56 57
320 2 2 1 1 193 194 188
321 2 2 1 1 184 53 54
322 2 2 1 1 184 182 183
323 2 2 1 1 65 66 27
324 2 2 1 1 29 69 198
325 2 2 1 1 29 198 4
326 2 2 1 1 26 64 65
327 2 2 1 1 64 26 199
328 2 2 1 1 199 26 3
329 2 2 1 1 27 66 67
330 2 2 1 1 67 28 27
331 2 2 1 1 102 198 12
332 2 2 1 1 198 102 4
333 2 2 1 1 68 69 29
334 2 2 1 1 68 28 67
335 2 2 1 1 29 28 68
336 2 2 1 1 26 65 27
337 2 2 1 1 198 69 12
338 2 2 1 1 199 101 11
339 2 2 1 1 101 199 3
340 2 2 1 1 64 199 11
341 2 2 1 1 81 38 80
342 2 2 1 1 76 35 200
343 2 2 1 1 77 78 36
344 2 2 1 1 79 37 36
345 2 2 1 1 76 77 35
346 2 2 1 1 200 35 4
347 2 2 1 1 36 78 79
348 2 2 1 1 35 77 36
349 2 2 1 1 38 81 201
350 2 2 1 1 38 37 80
351 2 2 1 1 80 37 79
352 2 2 1 1 38 201 6
353 2 2 1 1 103 201 14
354 2 2 1 1 201 103 6
355 2 2 1 1 201 81 14
356 2 2 1 1 200 102 12
357 2 2 1 1 102 200 4
358 2 2 1 1 76 200 12
359 2 2 1 1 93 47 92
360 2 2 1 1 89 90 45
361 2 2 1 1 88 44 202
362 2 2 1 1 45 90 91
363 2 2 1 1 88 89 44
364 2 2 1 1 202 44 6
365 2 2 1 1 47 46 92
366 2 2 1 1 47 93 203
367 2 2 1 1 92 46 91
368 2 2 1 1 47 203 8
369 2 2 1 1 104 203 16
370 2 2 1 1 203 104 8
371 2 2 1 1 44 89 45
372 2 2 1 1 91 46 45
373 2 2 1 1 203 93 16
374 2 2 1 1 202 103 14
375 2 2 1 1 103 202 6
376 2 2 1 1 88 202 14
377 2 2 1 1 100 52 99
378 2 2 1 1 95 49 204
379 2 2 1 1 96 97 50
380 2 2 1 1 204 49 8
381 2 2 1 1 95 96 49
382 2 2 1 1 99 52 51
383 2 2 1 1 99 51 98
384 2 2 1 1 52 100 205
385 2 2 1 1 98 51 50
386 2 2 1 1 50 97 98
387 2 2 1 1 52 205 3
388 2 2 1 1 101 205 11
389 2 2 1 1 205 101 3
390 2 2 1 1 49 96 50
391 2 2 1 1 205 100 11
392 2 2 1 1 204 104 16
393 2 2 1 1 104 204 8
394 2 2 1 1 95 204 16
395 2 2 1 1 94 15 206
396 2 2 1 1 206 15 82
397 2 2 1 1 82 13 206
398 2 2 1 1 206 13 70
399 2 2 1 1 206 9 94
400 2 2 1 1 58 9 206
401 2 2 1 1 70 10 206
402 2 2 1 1 206 10 58
403 2 2 2 2 48 207 7
404 2 2 2 2 207 39 7
405 2 2 2 2 39 207 5
406 2 2 2 2 207 30 5
407 2 2 2 2 207 48 1
408 2 2 2 2 21 207 1
409 2 2 2 2 30 207 2
410 2 2 2 2 207 21 2
$EndElements
